<svg xmlns="http://www.w3.org/2000/svg" xmlns:xlink="http://www.w3.org/1999/xlink" width="500" zoomAndPan="magnify" viewBox="0 0 375 374.999991" height="500" preserveAspectRatio="xMidYMid meet" version="1.0"><defs><g/></defs><path stroke-linecap="butt" transform="matrix(0.75, 0, 0, 0.75, 34.453112, 197.272444)" fill="none" stroke-linejoin="miter" d="M 12.505226 22.256535 C 13.156268 22.792993 13.885434 23.235701 14.692726 23.579451 C 15.505226 23.917993 16.447934 24.08466 17.520851 24.08466 C 18.817726 24.08466 19.83856 23.813826 20.593768 23.277368 C 21.348976 22.735701 21.729185 22.006535 21.729185 21.095076 C 21.729185 20.720076 21.671893 20.36591 21.562518 20.042993 C 21.458351 19.720076 21.24481 19.407576 20.93231 19.115909 C 20.61981 18.819034 20.18231 18.522159 19.614601 18.225284 C 19.046893 17.928409 18.317726 17.605493 17.416685 17.266951 C 16.447934 16.886743 15.625018 16.516951 14.947934 16.147159 C 14.276059 15.777368 13.734393 15.376326 13.317726 14.933618 C 12.901059 14.490909 12.609393 14.006534 12.427101 13.480492 C 12.244809 12.949242 12.156267 12.339867 12.156267 11.657576 C 12.156267 10.990909 12.296893 10.360701 12.572934 9.766951 C 12.854184 9.178409 13.265643 8.662784 13.817726 8.220075 C 14.364601 7.777367 15.036476 7.433617 15.838559 7.183617 C 16.640643 6.933617 17.552101 6.808617 18.572935 6.808617 C 19.687518 6.808617 20.687518 6.917992 21.562518 7.14195 C 22.442727 7.365909 23.317727 7.683617 24.18231 8.095075 L 23.239602 10.282576 C 22.625018 9.923201 21.911476 9.621117 21.093768 9.381534 C 20.281268 9.136742 19.421893 9.01695 18.520851 9.01695 C 17.33856 9.01695 16.401059 9.246117 15.718768 9.704451 C 15.031268 10.157576 14.692726 10.766951 14.692726 11.516951 C 14.692726 11.881534 14.739601 12.199242 14.838559 12.480492 C 14.937518 12.756534 15.135434 13.027367 15.427101 13.287784 C 15.729184 13.548201 16.140643 13.813826 16.671893 14.084659 C 17.203143 14.355492 17.911476 14.652368 18.791685 14.975284 C 19.833351 15.371118 20.71356 15.772159 21.43231 16.183618 C 22.15106 16.600284 22.723977 17.037784 23.156268 17.511743 C 23.58856 17.975284 23.90106 18.475284 24.08856 19.016951 C 24.281268 19.558618 24.375018 20.14716 24.375018 20.792993 C 24.375018 21.673201 24.203143 22.45966 23.859393 23.141951 C 23.515643 23.824243 23.046893 24.402368 22.442727 24.881535 C 21.843768 25.360702 21.11981 25.720077 20.270851 25.95966 C 19.43231 26.204452 18.515643 26.324243 17.520851 26.324243 C 16.208351 26.324243 15.015643 26.14716 13.932309 25.798202 C 12.859393 25.444035 11.953142 24.980493 11.213559 24.407576 Z M 44.21877 16.532576 C 44.21877 15.152368 44.416686 13.871117 44.822936 12.683617 C 45.223978 11.496117 45.807311 10.464867 46.572936 9.595076 C 47.338561 8.725284 48.265645 8.042992 49.364603 7.5482 C 50.463562 7.053409 51.708353 6.808617 53.109395 6.808617 C 54.494812 6.808617 55.739604 7.063825 56.848979 7.57945 C 57.953146 8.084659 58.890646 8.782575 59.651062 9.662784 C 60.416687 10.542992 61.005229 11.574242 61.416687 12.751326 C 61.828146 13.928409 62.036479 15.188826 62.036479 16.532576 C 62.036479 17.886743 61.833354 19.152368 61.427104 20.339868 C 61.026062 21.52216 60.437521 22.563826 59.666687 23.454451 C 58.890646 24.345076 57.958354 25.048202 56.859395 25.558618 C 55.765645 26.069035 54.515645 26.324243 53.109395 26.324243 C 51.708353 26.324243 50.463562 26.069035 49.364603 25.558618 C 48.265645 25.048202 47.338561 24.345076 46.572936 23.454451 C 45.807311 22.563826 45.223978 21.52216 44.822936 20.339868 C 44.416686 19.152368 44.21877 17.886743 44.21877 16.532576 Z M 46.828145 16.532576 C 46.828145 17.506534 46.96877 18.449243 47.244811 19.365909 C 47.526061 20.282576 47.93752 21.089868 48.473978 21.792993 C 49.015645 22.496118 49.677103 23.058618 50.458353 23.480493 C 51.239603 23.902368 52.119812 24.110701 53.109395 24.110701 C 54.151062 24.110701 55.067729 23.917993 55.848979 23.532576 C 56.630229 23.14716 57.286479 22.61591 57.817729 21.944035 C 58.343771 21.27216 58.744812 20.470076 59.015646 19.542993 C 59.286479 18.615909 59.421896 17.615909 59.421896 16.532576 C 59.421896 15.563826 59.276062 14.631534 58.984396 13.735701 C 58.703146 12.839867 58.291687 12.037784 57.75002 11.334659 C 57.208354 10.631534 56.546895 10.069034 55.770854 9.652367 C 54.989604 9.230492 54.098979 9.01695 53.109395 9.01695 C 52.119812 9.01695 51.239603 9.209659 50.458353 9.595076 C 49.677103 9.985701 49.015645 10.516951 48.473978 11.188826 C 47.93752 11.860701 47.526061 12.657576 47.244811 13.574242 C 46.96877 14.490909 46.828145 15.475284 46.828145 16.532576 Z M 82.958355 7.131534 L 94.140648 7.131534 L 94.140648 9.339867 L 85.520856 9.339867 L 85.520856 15.105493 L 92.713564 15.105493 L 92.713564 17.214868 L 85.520856 17.214868 L 85.520856 26.001327 L 82.958355 26.001327 Z M 112.375024 7.131534 L 126.526067 7.131534 L 126.526067 9.39195 L 120.729191 9.39195 L 120.729191 26.001327 L 118.171899 26.001327 L 118.171899 9.39195 L 112.375024 9.39195 Z M 144.343776 7.746117 L 146.880235 6.938825 L 151.14586 23.277368 L 155.161485 9.095075 L 158.36461 9.095075 L 162.359402 23.277368 L 166.593778 7.01695 L 168.963569 7.746117 L 163.869819 26.001327 L 160.687527 26.001327 L 156.692735 11.824242 L 152.651068 26.001327 L 149.473985 26.001327 Z M 186.781279 25.329452 L 194.166696 7.131534 L 196.973988 7.131534 L 204.25003 25.329452 L 201.90628 26.27216 L 199.802113 20.881535 L 191.067738 20.881535 L 188.968779 26.214868 Z M 191.875029 18.720076 L 198.963571 18.720076 L 195.43753 9.662784 Z M 235.09899 26.324243 L 232.744824 21.199243 C 232.156282 19.923201 231.406282 19.016951 230.510449 18.475284 C 229.614615 17.938826 228.463573 17.667993 227.057323 17.667993 L 226.656282 17.667993 L 226.656282 26.001327 L 224.09899 26.001327 L 224.09899 7.183617 C 225.06774 7.095075 225.979198 7.027367 226.828157 6.9857 C 227.687532 6.938825 228.614615 6.912784 229.619823 6.912784 C 230.770865 6.912784 231.776074 7.032575 232.640657 7.282575 C 233.50524 7.522159 234.22399 7.865909 234.802115 8.313825 C 235.375032 8.761742 235.807324 9.292992 236.104199 9.907576 C 236.401074 10.516951 236.552116 11.188826 236.552116 11.928409 C 236.552116 13.240909 236.161491 14.292992 235.38024 15.095076 C 234.59899 15.891951 233.468782 16.490909 231.994824 16.891951 C 232.354199 17.048201 232.687532 17.230493 232.989615 17.444034 C 233.296907 17.647159 233.583365 17.902368 233.854199 18.199243 C 234.125032 18.496118 234.390657 18.845076 234.651074 19.261743 C 234.91149 19.673201 235.177115 20.173201 235.447949 20.766951 L 237.494824 25.188827 Z M 229.619823 9.069034 C 229.010448 9.069034 228.463573 9.07945 227.97399 9.095075 C 227.489615 9.115909 227.052115 9.14195 226.656282 9.178409 L 226.656282 15.516951 L 229.619823 15.516951 C 230.916699 15.516951 231.963574 15.225284 232.770865 14.652368 C 233.583365 14.079451 233.989615 13.251326 233.989615 12.173201 C 233.989615 11.272159 233.614615 10.532576 232.859407 9.944034 C 232.104199 9.3607 231.026074 9.069034 229.619823 9.069034 Z M 257.880242 7.131534 L 269.203159 7.131534 L 269.203159 9.339867 L 260.442742 9.339867 L 260.442742 15.079451 L 267.989618 15.079451 L 267.989618 17.240909 L 260.442742 17.240909 L 260.442742 23.787785 L 269.203159 23.787785 L 269.203159 26.001327 L 257.880242 26.001327 Z M 315.229204 7.183617 C 316.072954 7.095075 316.895871 7.027367 317.703163 6.9857 C 318.515663 6.938825 319.442746 6.912784 320.479204 6.912784 C 322.098996 6.912784 323.49483 7.162784 324.661496 7.667992 C 325.828163 8.167992 326.796913 8.8607 327.567747 9.740909 C 328.348997 10.626326 328.916705 11.647159 329.286497 12.813826 C 329.656288 13.985701 329.83858 15.225284 329.83858 16.532576 C 329.83858 17.845076 329.65108 19.095076 329.27608 20.27216 C 328.895872 21.449243 328.317747 22.480493 327.531288 23.360701 C 326.750038 24.235701 325.750038 24.933618 324.536496 25.449243 C 323.322955 25.95966 321.875038 26.214868 320.182329 26.214868 C 319.161496 26.214868 318.270871 26.194035 317.505246 26.14716 C 316.744829 26.100285 315.984412 26.032577 315.229204 25.949243 Z M 320.401079 9.121117 C 319.880246 9.121117 319.406288 9.136742 318.973996 9.162784 C 318.541704 9.188825 318.151079 9.220075 317.786496 9.256534 L 317.786496 23.839868 C 318.166704 23.89716 318.562538 23.933618 318.973996 23.954451 C 319.385454 23.970076 319.817746 23.980493 320.270871 23.980493 C 321.473996 23.980493 322.510455 23.792993 323.390663 23.42841 C 324.270871 23.058618 324.99483 22.548201 325.562538 21.891951 C 326.130246 21.235701 326.546913 20.449243 326.812538 19.542993 C 327.083372 18.636743 327.218788 17.631534 327.218788 16.532576 C 327.218788 15.563826 327.083372 14.636743 326.812538 13.751326 C 326.546913 12.860701 326.135455 12.069034 325.578163 11.376326 C 325.020871 10.683617 324.312538 10.131534 323.447955 9.730492 C 322.583371 9.324242 321.567746 9.121117 320.401079 9.121117 Z M 350.760456 7.131534 L 362.083374 7.131534 L 362.083374 9.339867 L 353.322957 9.339867 L 353.322957 15.079451 L 360.87504 15.079451 L 360.87504 17.240909 L 353.322957 17.240909 L 353.322957 23.787785 L 362.083374 23.787785 L 362.083374 26.001327 L 350.760456 26.001327 Z M 380.713583 7.7982 L 383.224 6.834659 L 389.151084 23.194035 L 395.109418 6.912784 L 397.427126 7.7982 L 390.526084 26.001327 L 387.645875 26.001327 Z M 380.713583 7.7982 " stroke="#060644" stroke-width="2.022623" stroke-opacity="1" stroke-miterlimit="4"/><g fill="#060644" fill-opacity="1"><g transform="translate(42.257799, 216.772443)"><g><path d="M 1.578125 -2.8125 C 2.066406 -2.40625 2.613281 -2.070312 3.21875 -1.8125 C 3.820312 -1.5625 4.53125 -1.4375 5.34375 -1.4375 C 6.3125 -1.4375 7.078125 -1.640625 7.640625 -2.046875 C 8.203125 -2.453125 8.484375 -3 8.484375 -3.6875 C 8.484375 -3.96875 8.441406 -4.226562 8.359375 -4.46875 C 8.285156 -4.707031 8.128906 -4.9375 7.890625 -5.15625 C 7.660156 -5.382812 7.332031 -5.609375 6.90625 -5.828125 C 6.476562 -6.054688 5.925781 -6.296875 5.25 -6.546875 C 4.53125 -6.828125 3.914062 -7.101562 3.40625 -7.375 C 2.90625 -7.65625 2.5 -7.960938 2.1875 -8.296875 C 1.875 -8.628906 1.648438 -8.992188 1.515625 -9.390625 C 1.378906 -9.785156 1.3125 -10.238281 1.3125 -10.75 C 1.3125 -11.25 1.414062 -11.722656 1.625 -12.171875 C 1.832031 -12.617188 2.140625 -13.003906 2.546875 -13.328125 C 2.960938 -13.660156 3.46875 -13.921875 4.0625 -14.109375 C 4.664062 -14.296875 5.351562 -14.390625 6.125 -14.390625 C 6.957031 -14.390625 7.703125 -14.304688 8.359375 -14.140625 C 9.023438 -13.972656 9.679688 -13.734375 10.328125 -13.421875 L 9.625 -11.78125 C 9.164062 -12.050781 8.628906 -12.273438 8.015625 -12.453125 C 7.398438 -12.640625 6.753906 -12.734375 6.078125 -12.734375 C 5.191406 -12.734375 4.492188 -12.5625 3.984375 -12.21875 C 3.472656 -11.875 3.21875 -11.421875 3.21875 -10.859375 C 3.21875 -10.585938 3.253906 -10.347656 3.328125 -10.140625 C 3.398438 -9.929688 3.546875 -9.726562 3.765625 -9.53125 C 3.992188 -9.332031 4.304688 -9.132812 4.703125 -8.9375 C 5.097656 -8.738281 5.625 -8.515625 6.28125 -8.265625 C 7.0625 -7.972656 7.722656 -7.671875 8.265625 -7.359375 C 8.804688 -7.046875 9.238281 -6.710938 9.5625 -6.359375 C 9.882812 -6.015625 10.113281 -5.640625 10.25 -5.234375 C 10.394531 -4.828125 10.46875 -4.382812 10.46875 -3.90625 C 10.46875 -3.238281 10.335938 -2.648438 10.078125 -2.140625 C 9.828125 -1.628906 9.472656 -1.191406 9.015625 -0.828125 C 8.566406 -0.472656 8.023438 -0.203125 7.390625 -0.015625 C 6.765625 0.160156 6.082031 0.25 5.34375 0.25 C 4.351562 0.25 3.453125 0.117188 2.640625 -0.140625 C 1.835938 -0.410156 1.160156 -0.757812 0.609375 -1.1875 Z M 1.578125 -2.8125 "/></g></g></g><g fill="#060644" fill-opacity="1"><g transform="translate(66.603753, 216.772443)"><g><path d="M 1.015625 -7.09375 C 1.015625 -8.132812 1.164062 -9.097656 1.46875 -9.984375 C 1.769531 -10.878906 2.207031 -11.648438 2.78125 -12.296875 C 3.351562 -12.953125 4.050781 -13.460938 4.875 -13.828125 C 5.695312 -14.203125 6.632812 -14.390625 7.6875 -14.390625 C 8.71875 -14.390625 9.648438 -14.195312 10.484375 -13.8125 C 11.316406 -13.4375 12.019531 -12.914062 12.59375 -12.25 C 13.164062 -11.59375 13.601562 -10.820312 13.90625 -9.9375 C 14.21875 -9.050781 14.375 -8.101562 14.375 -7.09375 C 14.375 -6.082031 14.222656 -5.128906 13.921875 -4.234375 C 13.617188 -3.347656 13.175781 -2.570312 12.59375 -1.90625 C 12.019531 -1.238281 11.320312 -0.710938 10.5 -0.328125 C 9.675781 0.0546875 8.738281 0.25 7.6875 0.25 C 6.632812 0.25 5.695312 0.0546875 4.875 -0.328125 C 4.050781 -0.710938 3.351562 -1.238281 2.78125 -1.90625 C 2.207031 -2.570312 1.769531 -3.347656 1.46875 -4.234375 C 1.164062 -5.128906 1.015625 -6.082031 1.015625 -7.09375 Z M 2.96875 -7.09375 C 2.96875 -6.363281 3.070312 -5.65625 3.28125 -4.96875 C 3.488281 -4.28125 3.796875 -3.671875 4.203125 -3.140625 C 4.609375 -2.617188 5.101562 -2.203125 5.6875 -1.890625 C 6.28125 -1.578125 6.945312 -1.421875 7.6875 -1.421875 C 8.46875 -1.421875 9.148438 -1.5625 9.734375 -1.84375 C 10.316406 -2.132812 10.804688 -2.53125 11.203125 -3.03125 C 11.609375 -3.539062 11.910156 -4.144531 12.109375 -4.84375 C 12.316406 -5.539062 12.421875 -6.289062 12.421875 -7.09375 C 12.421875 -7.820312 12.3125 -8.519531 12.09375 -9.1875 C 11.875 -9.863281 11.5625 -10.460938 11.15625 -10.984375 C 10.75 -11.515625 10.253906 -11.9375 9.671875 -12.25 C 9.085938 -12.570312 8.425781 -12.734375 7.6875 -12.734375 C 6.945312 -12.734375 6.28125 -12.585938 5.6875 -12.296875 C 5.101562 -12.015625 4.609375 -11.617188 4.203125 -11.109375 C 3.796875 -10.609375 3.488281 -10.015625 3.28125 -9.328125 C 3.070312 -8.640625 2.96875 -7.894531 2.96875 -7.09375 Z M 2.96875 -7.09375 "/></g></g></g><g fill="#060644" fill-opacity="1"><g transform="translate(94.85118, 216.772443)"><g><path d="M 1.8125 -14.15625 L 10.203125 -14.15625 L 10.203125 -12.5 L 3.734375 -12.5 L 3.734375 -8.171875 L 9.140625 -8.171875 L 9.140625 -6.59375 L 3.734375 -6.59375 L 3.734375 0 L 1.8125 0 Z M 1.8125 -14.15625 "/></g></g></g><g fill="#060644" fill-opacity="1"><g transform="translate(118.530034, 216.772443)"><g><path d="M 0.203125 -14.15625 L 10.8125 -14.15625 L 10.8125 -12.453125 L 6.46875 -12.453125 L 6.46875 0 L 4.546875 0 L 4.546875 -12.453125 L 0.203125 -12.453125 Z M 0.203125 -14.15625 "/></g></g></g><g fill="#060644" fill-opacity="1"><g transform="translate(142.411037, 216.772443)"><g><path d="M 0.296875 -13.6875 L 2.203125 -14.296875 L 5.390625 -2.046875 L 8.40625 -12.671875 L 10.8125 -12.671875 L 13.8125 -2.046875 L 16.984375 -14.234375 L 18.765625 -13.6875 L 14.9375 0 L 12.5625 0 L 9.5625 -10.640625 L 6.53125 0 L 4.140625 0 Z M 0.296875 -13.6875 "/></g></g></g><g fill="#060644" fill-opacity="1"><g transform="translate(174.33758, 216.772443)"><g><path d="M 0.203125 -0.5 L 5.734375 -14.15625 L 7.84375 -14.15625 L 13.296875 -0.5 L 11.546875 0.203125 L 9.96875 -3.84375 L 3.421875 -3.84375 L 1.84375 0.15625 Z M 4.03125 -5.453125 L 9.34375 -5.453125 L 6.6875 -12.25 Z M 4.03125 -5.453125 "/></g></g></g><g fill="#060644" fill-opacity="1"><g transform="translate(200.705017, 216.772443)"><g><path d="M 10.0625 0.25 L 8.3125 -3.59375 C 7.863281 -4.550781 7.300781 -5.234375 6.625 -5.640625 C 5.957031 -6.046875 5.097656 -6.25 4.046875 -6.25 L 3.734375 -6.25 L 3.734375 0 L 1.8125 0 L 1.8125 -14.109375 C 2.539062 -14.179688 3.222656 -14.234375 3.859375 -14.265625 C 4.503906 -14.296875 5.207031 -14.3125 5.96875 -14.3125 C 6.832031 -14.3125 7.585938 -14.21875 8.234375 -14.03125 C 8.878906 -13.851562 9.414062 -13.597656 9.84375 -13.265625 C 10.28125 -12.929688 10.609375 -12.535156 10.828125 -12.078125 C 11.046875 -11.617188 11.15625 -11.109375 11.15625 -10.546875 C 11.15625 -9.566406 10.863281 -8.773438 10.28125 -8.171875 C 9.695312 -7.578125 8.851562 -7.128906 7.75 -6.828125 C 8.007812 -6.710938 8.253906 -6.578125 8.484375 -6.421875 C 8.710938 -6.265625 8.925781 -6.070312 9.125 -5.84375 C 9.332031 -5.625 9.535156 -5.359375 9.734375 -5.046875 C 9.929688 -4.742188 10.128906 -4.367188 10.328125 -3.921875 L 11.875 -0.609375 Z M 5.96875 -12.703125 C 5.507812 -12.703125 5.097656 -12.691406 4.734375 -12.671875 C 4.367188 -12.660156 4.035156 -12.640625 3.734375 -12.609375 L 3.734375 -7.859375 L 5.96875 -7.859375 C 6.9375 -7.859375 7.722656 -8.070312 8.328125 -8.5 C 8.929688 -8.9375 9.234375 -9.5625 9.234375 -10.375 C 9.234375 -11.050781 8.953125 -11.609375 8.390625 -12.046875 C 7.828125 -12.484375 7.019531 -12.703125 5.96875 -12.703125 Z M 5.96875 -12.703125 "/></g></g></g><g fill="#060644" fill-opacity="1"><g transform="translate(226.041502, 216.772443)"><g><path d="M 1.8125 -14.15625 L 10.3125 -14.15625 L 10.3125 -12.5 L 3.734375 -12.5 L 3.734375 -8.1875 L 9.40625 -8.1875 L 9.40625 -6.578125 L 3.734375 -6.578125 L 3.734375 -1.65625 L 10.3125 -1.65625 L 10.3125 0 L 1.8125 0 Z M 1.8125 -14.15625 "/></g></g></g><g fill="#060644" fill-opacity="1"><g transform="translate(250.124653, 216.772443)"><g/></g></g><g fill="#060644" fill-opacity="1"><g transform="translate(269.052997, 216.772443)"><g><path d="M 1.8125 -14.109375 C 2.445312 -14.179688 3.066406 -14.234375 3.671875 -14.265625 C 4.285156 -14.296875 4.984375 -14.3125 5.765625 -14.3125 C 6.972656 -14.3125 8.015625 -14.125 8.890625 -13.75 C 9.765625 -13.375 10.492188 -12.851562 11.078125 -12.1875 C 11.660156 -11.53125 12.085938 -10.765625 12.359375 -9.890625 C 12.640625 -9.015625 12.78125 -8.082031 12.78125 -7.09375 C 12.78125 -6.113281 12.632812 -5.179688 12.34375 -4.296875 C 12.0625 -3.410156 11.628906 -2.632812 11.046875 -1.96875 C 10.460938 -1.3125 9.710938 -0.789062 8.796875 -0.40625 C 7.890625 -0.03125 6.804688 0.15625 5.546875 0.15625 C 4.773438 0.15625 4.101562 0.140625 3.53125 0.109375 C 2.957031 0.078125 2.382812 0.0234375 1.8125 -0.046875 Z M 5.703125 -12.65625 C 5.304688 -12.65625 4.945312 -12.644531 4.625 -12.625 C 4.300781 -12.601562 4.003906 -12.582031 3.734375 -12.5625 L 3.734375 -1.625 C 4.023438 -1.582031 4.320312 -1.550781 4.625 -1.53125 C 4.9375 -1.519531 5.257812 -1.515625 5.59375 -1.515625 C 6.5 -1.515625 7.28125 -1.648438 7.9375 -1.921875 C 8.601562 -2.203125 9.144531 -2.585938 9.5625 -3.078125 C 9.988281 -3.578125 10.300781 -4.164062 10.5 -4.84375 C 10.707031 -5.519531 10.8125 -6.269531 10.8125 -7.09375 C 10.8125 -7.820312 10.707031 -8.519531 10.5 -9.1875 C 10.300781 -9.851562 9.992188 -10.445312 9.578125 -10.96875 C 9.160156 -11.488281 8.628906 -11.898438 7.984375 -12.203125 C 7.335938 -12.503906 6.578125 -12.65625 5.703125 -12.65625 Z M 5.703125 -12.65625 "/></g></g></g><g fill="#060644" fill-opacity="1"><g transform="translate(295.703447, 216.772443)"><g><path d="M 1.8125 -14.15625 L 10.3125 -14.15625 L 10.3125 -12.5 L 3.734375 -12.5 L 3.734375 -8.1875 L 9.40625 -8.1875 L 9.40625 -6.578125 L 3.734375 -6.578125 L 3.734375 -1.65625 L 10.3125 -1.65625 L 10.3125 0 L 1.8125 0 Z M 1.8125 -14.15625 "/></g></g></g><g fill="#060644" fill-opacity="1"><g transform="translate(319.786598, 216.772443)"><g><path d="M 0.203125 -13.640625 L 2.078125 -14.375 L 6.53125 -2.109375 L 11 -14.3125 L 12.734375 -13.640625 L 7.5625 0 L 5.390625 0 Z M 0.203125 -13.640625 "/></g></g></g><path stroke-linecap="butt" transform="matrix(0.75, 0, 0, 0.75, 234.262489, 128.551648)" fill="none" stroke-linejoin="miter" d="M 38.900017 66.998849 L 45.165642 66.998849 L 22.837516 14.285304 L 22.327099 14.285304 C 16.639599 23.92593 9.936473 37.509264 5.97814 48.191556 C 4.176056 52.96239 3.13439 57.139474 2.769806 60.436349 C 2.389598 63.790516 3.207306 66.035308 5.233348 66.925933 C 5.743765 67.363433 5.97814 67.363433 6.41564 67.457183 C 9.79064 67.603016 11.045849 64.832183 12.467724 61.092599 C 14.85314 55.644682 17.769807 47.972806 30.457308 46.769681 Z M 30.238558 46.238431 C 17.316682 47.514473 14.327099 55.353015 11.863557 60.946766 C 10.681265 64.394682 9.47814 66.998849 6.488557 66.780099 C 6.123973 66.545724 5.905223 66.545724 5.452098 66.399891 C 3.66564 65.795724 3.13439 63.483224 3.280223 60.436349 C 3.66564 57.21239 4.702098 53.108223 6.488557 48.33739 C 9.623973 39.675931 14.707307 29.524889 19.264599 20.701971 Z M 83.61877 55.951974 C 80.847936 63.483224 77.05627 66.399891 70.618769 66.399891 L 58.009393 66.399891 L 58.009393 14.285304 L 52.030226 14.285304 L 52.030226 66.998849 L 81.832312 66.998849 Z M 126.769815 66.998849 L 133.040648 66.998849 L 110.712522 14.285304 L 110.202105 14.285304 C 104.514605 23.92593 97.806271 37.509264 93.847937 48.191556 C 92.045854 52.96239 91.004187 57.139474 90.639604 60.436349 C 90.259395 63.790516 91.077104 66.035308 93.103146 66.925933 C 93.613562 67.363433 93.847937 67.363433 94.285437 67.457183 C 97.660438 67.603016 98.915646 64.832183 100.337521 61.092599 C 102.728146 55.644682 105.644813 47.972806 118.327106 46.769681 Z M 118.108356 46.238431 C 105.18648 47.514473 102.196896 55.353015 99.738563 60.946766 C 98.551063 64.394682 97.347938 66.998849 94.358354 66.780099 C 93.993771 66.545724 93.775021 66.545724 93.321896 66.399891 C 91.535437 65.795724 91.004187 63.483224 91.15002 60.436349 C 91.535437 57.21239 92.571896 53.108223 94.358354 48.33739 C 97.493771 39.675931 102.582313 29.524889 107.139605 20.701971 Z M 139.900024 14.285304 L 139.900024 66.998849 L 145.514607 66.998849 L 145.514607 14.816554 C 153.5719 14.816554 159.551067 20.868638 164.014609 29.379055 C 169.535442 40.207181 172.306276 55.134265 172.306276 66.998849 L 177.905235 66.998849 L 177.905235 14.285304 L 172.306276 14.285304 L 172.306276 57.139474 C 171.196901 47.514473 168.717734 37.217597 164.327109 29.066555 C 159.988567 20.410305 153.644816 14.285304 145.514607 14.285304 Z M 139.900024 14.285304 " stroke="#060644" stroke-width="5.600002" stroke-opacity="1" stroke-miterlimit="4"/><g fill="#060644" fill-opacity="1"><g transform="translate(234.262489, 178.801644)"><g><path d="M 29.171875 0 L 33.878906 0 L 17.132812 -39.53125 L 16.742188 -39.53125 C 12.488281 -32.308594 7.449219 -22.117188 4.480469 -14.109375 C 3.136719 -10.527344 2.351562 -7.390625 2.070312 -4.925781 C 1.792969 -2.40625 2.40625 -0.726562 3.917969 -0.0546875 C 4.3125 0.28125 4.480469 0.28125 4.816406 0.335938 C 7.335938 0.449219 8.289062 -1.625 9.351562 -4.421875 C 11.144531 -8.511719 13.328125 -14.277344 22.847656 -15.175781 Z M 22.679688 -15.566406 C 12.992188 -14.613281 10.75 -8.734375 8.902344 -4.535156 C 8.007812 -1.960938 7.113281 0 4.871094 -0.167969 C 4.589844 -0.335938 4.421875 -0.335938 4.085938 -0.449219 C 2.742188 -0.894531 2.351562 -2.632812 2.464844 -4.925781 C 2.742188 -7.335938 3.527344 -10.414062 4.871094 -14 C 7.222656 -20.496094 11.03125 -28.109375 14.445312 -34.71875 Z M 22.679688 -15.566406 "/></g></g></g><g fill="#060644" fill-opacity="1"><g transform="translate(271.329485, 178.801644)"><g><path d="M 25.644531 -8.289062 C 23.574219 -2.632812 20.71875 -0.449219 15.902344 -0.449219 L 6.4375 -0.449219 L 6.4375 -39.53125 L 1.960938 -39.53125 L 1.960938 0 L 24.300781 0 Z M 25.644531 -8.289062 "/></g></g></g><g fill="#060644" fill-opacity="1"><g transform="translate(300.165628, 178.801644)"><g><path d="M 29.171875 0 L 33.878906 0 L 17.132812 -39.53125 L 16.742188 -39.53125 C 12.488281 -32.308594 7.449219 -22.117188 4.480469 -14.109375 C 3.136719 -10.527344 2.351562 -7.390625 2.070312 -4.925781 C 1.792969 -2.40625 2.40625 -0.726562 3.917969 -0.0546875 C 4.3125 0.28125 4.480469 0.28125 4.816406 0.335938 C 7.335938 0.449219 8.289062 -1.625 9.351562 -4.421875 C 11.144531 -8.511719 13.328125 -14.277344 22.847656 -15.175781 Z M 22.679688 -15.566406 C 12.992188 -14.613281 10.75 -8.734375 8.902344 -4.535156 C 8.007812 -1.960938 7.113281 0 4.871094 -0.167969 C 4.589844 -0.335938 4.421875 -0.335938 4.085938 -0.449219 C 2.742188 -0.894531 2.351562 -2.632812 2.464844 -4.925781 C 2.742188 -7.335938 3.527344 -10.414062 4.871094 -14 C 7.222656 -20.496094 11.03125 -28.109375 14.445312 -34.71875 Z M 22.679688 -15.566406 "/></g></g></g><g fill="#060644" fill-opacity="1"><g transform="translate(337.232622, 178.801644)"><g><path d="M 1.960938 -39.53125 L 1.960938 0 L 6.160156 0 L 6.160156 -39.140625 C 12.207031 -39.140625 16.6875 -34.605469 20.046875 -28.222656 C 24.191406 -20.101562 26.261719 -8.902344 26.261719 0 L 30.460938 0 L 30.460938 -39.53125 L 26.261719 -39.53125 L 26.261719 -7.390625 C 25.421875 -14.613281 23.574219 -22.34375 20.269531 -28.445312 C 17.023438 -34.941406 12.261719 -39.53125 6.160156 -39.53125 Z M 1.960938 -39.53125 "/></g></g></g><path stroke-linecap="butt" transform="matrix(0.75, 0, 0, 0.75, 14.344054, 100.739494)" fill="none" stroke-linejoin="miter" d="M 57.301682 102.99839 L 66.536058 102.99839 L 33.64543 25.347343 L 32.890222 25.347343 C 24.515222 39.550469 14.635013 59.555678 8.806887 75.290054 C 6.150637 82.326513 4.619387 88.472347 4.082929 93.331722 C 3.51522 98.274431 4.723554 101.576514 7.707929 102.894223 C 8.457929 103.534848 8.806887 103.534848 9.452721 103.670265 C 14.416263 103.883806 16.270429 99.805681 18.364179 94.300472 C 21.885013 86.27443 26.181888 74.967138 44.86939 73.196304 Z M 44.546473 72.415054 C 25.510013 74.295263 21.103763 85.842138 17.478763 94.086931 C 15.733971 99.159848 13.963138 102.99839 9.556887 102.675473 C 9.020429 102.326514 8.697512 102.326514 8.030845 102.112973 C 5.395429 101.227556 4.619387 97.816098 4.832929 93.331722 C 5.395429 88.581722 6.926679 82.540055 9.556887 75.503596 C 14.176679 62.748387 21.666263 47.795261 28.379805 34.800468 Z M 44.546473 72.415054 " stroke="#060644" stroke-width="8.2485" stroke-opacity="1" stroke-miterlimit="4"/><g fill="#060644" fill-opacity="1"><g transform="translate(14.344054, 177.989489)"><g><path d="M 42.976562 0 L 49.902344 0 L 25.242188 -58.234375 L 24.664062 -58.234375 C 18.394531 -47.59375 10.96875 -32.582031 6.597656 -20.785156 C 4.621094 -15.507812 3.464844 -10.886719 3.050781 -7.257812 C 2.640625 -3.546875 3.546875 -1.074219 5.773438 -0.0820312 C 6.351562 0.414062 6.597656 0.414062 7.09375 0.496094 C 10.804688 0.660156 12.207031 -2.390625 13.773438 -6.515625 C 16.414062 -12.539062 19.632812 -21.035156 33.652344 -22.351562 Z M 33.40625 -22.929688 C 19.136719 -21.527344 15.835938 -12.867188 13.113281 -6.679688 C 11.796875 -2.886719 10.476562 0 7.175781 -0.246094 C 6.765625 -0.496094 6.515625 -0.496094 6.019531 -0.660156 C 4.042969 -1.320312 3.464844 -3.875 3.628906 -7.257812 C 4.042969 -10.804688 5.195312 -15.34375 7.175781 -20.621094 C 10.640625 -30.191406 16.25 -41.40625 21.28125 -51.140625 Z M 33.40625 -22.929688 "/></g></g></g><path stroke-linecap="butt" transform="matrix(0.75, 0, 0, 0.75, 71.01246, 128.549128)" fill="none" stroke-linejoin="miter" d="M 2.608387 14.273039 L 2.608387 67.002209 L 8.222971 67.002209 L 8.222971 14.799081 C 16.280263 14.799081 22.25943 20.851165 26.72818 29.36679 C 32.254222 40.200124 35.025056 55.132417 35.025056 67.002209 L 40.624015 67.002209 L 40.624015 14.273039 L 35.025056 14.273039 L 35.025056 57.137625 C 33.910472 47.507416 31.431306 37.210541 27.04068 29.059498 C 22.69693 20.39804 16.35318 14.273039 8.222971 14.273039 Z M 84.686517 18.465748 C 85.212559 17.116789 88.040684 14.345956 89.988601 14.200123 L 81.551101 14.200123 C 82.972976 14.345956 85.358392 15.767831 83.790684 18.830331 L 71.467767 42.731374 L 65.941725 33.543874 L 54.436515 14.200123 L 47.707348 14.200123 L 65.941725 44.8095 L 65.941725 67.002209 L 71.83235 67.002209 L 71.83235 43.241791 Z M 84.686517 18.465748 " stroke="#060644" stroke-width="5.601398" stroke-opacity="1" stroke-miterlimit="4"/><g fill="#060644" fill-opacity="1"><g transform="translate(71.01246, 178.799124)"><g><path d="M 1.960938 -39.542969 L 1.960938 0 L 6.160156 0 L 6.160156 -39.152344 C 12.210938 -39.152344 16.691406 -34.613281 20.050781 -28.230469 C 24.195312 -20.109375 26.269531 -8.90625 26.269531 0 L 30.46875 0 L 30.46875 -39.542969 L 26.269531 -39.542969 L 26.269531 -7.394531 C 25.429688 -14.617188 23.582031 -22.347656 20.277344 -28.453125 C 17.027344 -34.949219 12.265625 -39.542969 6.160156 -39.542969 Z M 1.960938 -39.542969 "/></g></g></g><g fill="#060644" fill-opacity="1"><g transform="translate(104.839116, 178.799124)"><g><path d="M 29.683594 -36.40625 C 30.078125 -37.414062 32.207031 -39.488281 33.660156 -39.597656 L 27.332031 -39.597656 C 28.398438 -39.488281 30.1875 -38.421875 29.011719 -36.125 L 19.773438 -18.203125 L 15.625 -25.09375 L 7 -39.597656 L 1.960938 -39.597656 L 15.625 -16.636719 L 15.625 0 L 20.050781 0 L 20.050781 -17.8125 Z M 29.683594 -36.40625 "/></g></g></g><path stroke-linecap="butt" transform="matrix(0.75, 0, 0, 0.75, 187.499992, 102.789543)" fill="none" stroke-linejoin="miter" d="M 35.526054 59.264988 C 44.223972 57.431655 51.296889 52.061863 51.296889 42.421237 C 51.296889 30.077487 38.406263 25.233736 22.322929 25.233736 L 3.744802 25.233736 L 3.744802 100.999366 L 29.187512 100.999366 C 45.718763 100.895199 58.578139 97.254574 58.578139 79.962906 C 58.578139 64.738947 49.04168 60.233738 35.526054 59.264988 Z M 50.223972 79.962906 C 50.223972 99.270199 37.989596 100.134783 28.322929 100.134783 L 12.234386 100.134783 L 12.234386 41.238946 C 13.09897 45.405613 14.385428 49.072279 16.322928 51.957696 C 19.41147 56.905613 24.156262 59.79103 29.187512 59.79103 C 38.51043 59.79103 50.223972 60.75978 50.223972 79.962906 Z M 42.911472 42.421237 C 42.911472 54.10353 36.390638 58.926447 29.187512 58.926447 C 24.364595 58.926447 20.171887 56.254572 17.16147 51.431655 C 14.06772 46.926446 12.234386 40.478529 12.234386 33.06707 L 12.234386 25.994153 L 22.322929 25.994153 C 32.619804 25.994153 42.911472 30.186862 42.911472 42.421237 Z M 42.911472 42.421237 " stroke="#060644" stroke-width="8.04855" stroke-opacity="1" stroke-miterlimit="4"/><g fill="#060644" fill-opacity="1"><g transform="translate(187.499992, 178.539538)"><g><path d="M 26.640625 -31.308594 C 33.160156 -32.675781 38.46875 -36.699219 38.46875 -43.945312 C 38.46875 -53.199219 28.8125 -56.820312 16.742188 -56.820312 L 2.816406 -56.820312 L 2.816406 0 L 21.890625 0 C 34.285156 -0.0820312 43.945312 -2.816406 43.945312 -15.773438 C 43.945312 -27.203125 36.78125 -30.582031 26.640625 -31.308594 Z M 37.664062 -15.773438 C 37.664062 -1.289062 28.492188 -0.644531 21.246094 -0.644531 L 9.175781 -0.644531 L 9.175781 -44.828125 C 9.820312 -41.691406 10.785156 -38.953125 12.234375 -36.78125 C 14.566406 -33.078125 18.109375 -30.90625 21.890625 -30.90625 C 28.894531 -30.90625 37.664062 -30.179688 37.664062 -15.773438 Z M 32.191406 -43.945312 C 32.191406 -35.171875 27.285156 -31.550781 21.890625 -31.550781 C 18.269531 -31.550781 15.128906 -33.5625 12.878906 -37.183594 C 10.542969 -40.5625 9.175781 -45.390625 9.175781 -50.945312 L 9.175781 -56.257812 L 16.742188 -56.257812 C 24.464844 -56.257812 32.191406 -53.117188 32.191406 -43.945312 Z M 32.191406 -43.945312 "/></g></g></g><path stroke-linecap="butt" transform="matrix(0.75, 0, 0, 0.75, 133.706729, 128.550798)" fill="none" stroke-linejoin="miter" d="M 38.906655 66.999982 L 45.177489 66.999982 L 22.844154 14.270812 L 22.333737 14.270812 C 16.646237 23.916646 9.937903 37.49998 5.97957 48.182273 C 4.177486 52.963523 3.135819 57.135398 2.771236 60.437482 C 2.391028 63.791649 3.208736 66.031232 5.234778 66.927065 C 5.745195 67.364565 5.97957 67.364565 6.41707 67.458315 C 9.79207 67.604149 11.047278 64.828107 12.469153 61.093732 C 14.859779 55.640606 17.776445 47.963523 30.463946 46.760397 Z M 30.245196 46.234356 C 17.32332 47.510398 14.328529 55.34894 11.870195 60.947898 C 10.682695 64.390607 9.47957 66.999982 6.489986 66.781232 C 6.125403 66.541649 5.906653 66.541649 5.453528 66.395815 C 3.667069 65.796857 3.135819 63.479149 3.281653 60.437482 C 3.667069 57.208315 4.703528 53.109356 6.489986 48.328106 C 9.625403 39.671855 14.713945 29.515605 19.271237 20.687479 Z M 30.245196 46.234356 " stroke="#060644" stroke-width="5.601398" stroke-opacity="1" stroke-miterlimit="4"/><g fill="#060644" fill-opacity="1"><g transform="translate(133.706729, 178.800795)"><g><path d="M 29.179688 0 L 33.886719 0 L 17.140625 -39.542969 L 16.746094 -39.542969 C 12.488281 -32.316406 7.449219 -22.125 4.480469 -14.113281 C 3.136719 -10.53125 2.351562 -7.394531 2.074219 -4.929688 C 1.792969 -2.410156 2.410156 -0.726562 3.921875 -0.0546875 C 4.3125 0.28125 4.480469 0.28125 4.816406 0.335938 C 7.335938 0.449219 8.289062 -1.625 9.355469 -4.425781 C 11.144531 -8.511719 13.332031 -14.28125 22.851562 -15.179688 Z M 22.683594 -15.570312 C 12.996094 -14.617188 10.753906 -8.738281 8.90625 -4.535156 C 8.007812 -1.960938 7.113281 0 4.871094 -0.167969 C 4.59375 -0.335938 4.425781 -0.335938 4.089844 -0.449219 C 2.746094 -0.894531 2.351562 -2.632812 2.464844 -4.929688 C 2.746094 -7.335938 3.527344 -10.417969 4.871094 -14.003906 C 7.226562 -20.5 11.035156 -28.117188 14.449219 -34.726562 Z M 22.683594 -15.570312 "/></g></g></g></svg>