<svg xmlns="http://www.w3.org/2000/svg" xmlns:xlink="http://www.w3.org/1999/xlink" width="500" zoomAndPan="magnify" viewBox="0 0 375 374.999991" height="500" preserveAspectRatio="xMidYMid meet" version="1.0"><defs><g/></defs><g fill="#707ab7" fill-opacity="1"><g transform="translate(42.257799, 216.772443)"><g><path d="M 1.578125 -2.8125 C 2.066406 -2.40625 2.613281 -2.070312 3.21875 -1.8125 C 3.820312 -1.5625 4.53125 -1.4375 5.34375 -1.4375 C 6.3125 -1.4375 7.078125 -1.640625 7.640625 -2.046875 C 8.203125 -2.453125 8.484375 -3 8.484375 -3.6875 C 8.484375 -3.96875 8.441406 -4.226562 8.359375 -4.46875 C 8.285156 -4.707031 8.128906 -4.9375 7.890625 -5.15625 C 7.660156 -5.382812 7.332031 -5.609375 6.90625 -5.828125 C 6.476562 -6.054688 5.925781 -6.296875 5.25 -6.546875 C 4.53125 -6.828125 3.914062 -7.101562 3.40625 -7.375 C 2.90625 -7.65625 2.5 -7.960938 2.1875 -8.296875 C 1.875 -8.628906 1.648438 -8.992188 1.515625 -9.390625 C 1.378906 -9.785156 1.3125 -10.238281 1.3125 -10.75 C 1.3125 -11.25 1.414062 -11.722656 1.625 -12.171875 C 1.832031 -12.617188 2.140625 -13.003906 2.546875 -13.328125 C 2.960938 -13.660156 3.46875 -13.921875 4.0625 -14.109375 C 4.664062 -14.296875 5.351562 -14.390625 6.125 -14.390625 C 6.957031 -14.390625 7.703125 -14.304688 8.359375 -14.140625 C 9.023438 -13.972656 9.679688 -13.734375 10.328125 -13.421875 L 9.625 -11.78125 C 9.164062 -12.050781 8.628906 -12.273438 8.015625 -12.453125 C 7.398438 -12.640625 6.753906 -12.734375 6.078125 -12.734375 C 5.191406 -12.734375 4.492188 -12.5625 3.984375 -12.21875 C 3.472656 -11.875 3.21875 -11.421875 3.21875 -10.859375 C 3.21875 -10.585938 3.253906 -10.347656 3.328125 -10.140625 C 3.398438 -9.929688 3.546875 -9.726562 3.765625 -9.53125 C 3.992188 -9.332031 4.304688 -9.132812 4.703125 -8.9375 C 5.097656 -8.738281 5.625 -8.515625 6.28125 -8.265625 C 7.0625 -7.972656 7.722656 -7.671875 8.265625 -7.359375 C 8.804688 -7.046875 9.238281 -6.710938 9.5625 -6.359375 C 9.882812 -6.015625 10.113281 -5.640625 10.25 -5.234375 C 10.394531 -4.828125 10.46875 -4.382812 10.46875 -3.90625 C 10.46875 -3.238281 10.335938 -2.648438 10.078125 -2.140625 C 9.828125 -1.628906 9.472656 -1.191406 9.015625 -0.828125 C 8.566406 -0.472656 8.023438 -0.203125 7.390625 -0.015625 C 6.765625 0.160156 6.082031 0.25 5.34375 0.25 C 4.351562 0.25 3.453125 0.117188 2.640625 -0.140625 C 1.835938 -0.410156 1.160156 -0.757812 0.609375 -1.1875 Z M 1.578125 -2.8125 "/></g></g></g><g fill="#707ab7" fill-opacity="1"><g transform="translate(66.603753, 216.772443)"><g><path d="M 1.015625 -7.09375 C 1.015625 -8.132812 1.164062 -9.097656 1.46875 -9.984375 C 1.769531 -10.878906 2.207031 -11.648438 2.78125 -12.296875 C 3.351562 -12.953125 4.050781 -13.460938 4.875 -13.828125 C 5.695312 -14.203125 6.632812 -14.390625 7.6875 -14.390625 C 8.71875 -14.390625 9.648438 -14.195312 10.484375 -13.8125 C 11.316406 -13.4375 12.019531 -12.914062 12.59375 -12.25 C 13.164062 -11.59375 13.601562 -10.820312 13.90625 -9.9375 C 14.21875 -9.050781 14.375 -8.101562 14.375 -7.09375 C 14.375 -6.082031 14.222656 -5.128906 13.921875 -4.234375 C 13.617188 -3.347656 13.175781 -2.570312 12.59375 -1.90625 C 12.019531 -1.238281 11.320312 -0.710938 10.5 -0.328125 C 9.675781 0.0546875 8.738281 0.25 7.6875 0.25 C 6.632812 0.25 5.695312 0.0546875 4.875 -0.328125 C 4.050781 -0.710938 3.351562 -1.238281 2.78125 -1.90625 C 2.207031 -2.570312 1.769531 -3.347656 1.46875 -4.234375 C 1.164062 -5.128906 1.015625 -6.082031 1.015625 -7.09375 Z M 2.96875 -7.09375 C 2.96875 -6.363281 3.070312 -5.65625 3.28125 -4.96875 C 3.488281 -4.28125 3.796875 -3.671875 4.203125 -3.140625 C 4.609375 -2.617188 5.101562 -2.203125 5.6875 -1.890625 C 6.28125 -1.578125 6.945312 -1.421875 7.6875 -1.421875 C 8.46875 -1.421875 9.148438 -1.5625 9.734375 -1.84375 C 10.316406 -2.132812 10.804688 -2.53125 11.203125 -3.03125 C 11.609375 -3.539062 11.910156 -4.144531 12.109375 -4.84375 C 12.316406 -5.539062 12.421875 -6.289062 12.421875 -7.09375 C 12.421875 -7.820312 12.3125 -8.519531 12.09375 -9.1875 C 11.875 -9.863281 11.5625 -10.460938 11.15625 -10.984375 C 10.75 -11.515625 10.253906 -11.9375 9.671875 -12.25 C 9.085938 -12.570312 8.425781 -12.734375 7.6875 -12.734375 C 6.945312 -12.734375 6.28125 -12.585938 5.6875 -12.296875 C 5.101562 -12.015625 4.609375 -11.617188 4.203125 -11.109375 C 3.796875 -10.609375 3.488281 -10.015625 3.28125 -9.328125 C 3.070312 -8.640625 2.96875 -7.894531 2.96875 -7.09375 Z M 2.96875 -7.09375 "/></g></g></g><g fill="#707ab7" fill-opacity="1"><g transform="translate(94.85118, 216.772443)"><g><path d="M 1.8125 -14.15625 L 10.203125 -14.15625 L 10.203125 -12.5 L 3.734375 -12.5 L 3.734375 -8.171875 L 9.140625 -8.171875 L 9.140625 -6.59375 L 3.734375 -6.59375 L 3.734375 0 L 1.8125 0 Z M 1.8125 -14.15625 "/></g></g></g><g fill="#707ab7" fill-opacity="1"><g transform="translate(118.530034, 216.772443)"><g><path d="M 0.203125 -14.15625 L 10.8125 -14.15625 L 10.8125 -12.453125 L 6.46875 -12.453125 L 6.46875 0 L 4.546875 0 L 4.546875 -12.453125 L 0.203125 -12.453125 Z M 0.203125 -14.15625 "/></g></g></g><g fill="#707ab7" fill-opacity="1"><g transform="translate(142.411037, 216.772443)"><g><path d="M 0.296875 -13.6875 L 2.203125 -14.296875 L 5.390625 -2.046875 L 8.40625 -12.671875 L 10.8125 -12.671875 L 13.8125 -2.046875 L 16.984375 -14.234375 L 18.765625 -13.6875 L 14.9375 0 L 12.5625 0 L 9.5625 -10.640625 L 6.53125 0 L 4.140625 0 Z M 0.296875 -13.6875 "/></g></g></g><g fill="#707ab7" fill-opacity="1"><g transform="translate(174.33758, 216.772443)"><g><path d="M 0.203125 -0.5 L 5.734375 -14.15625 L 7.84375 -14.15625 L 13.296875 -0.5 L 11.546875 0.203125 L 9.96875 -3.84375 L 3.421875 -3.84375 L 1.84375 0.15625 Z M 4.03125 -5.453125 L 9.34375 -5.453125 L 6.6875 -12.25 Z M 4.03125 -5.453125 "/></g></g></g><g fill="#707ab7" fill-opacity="1"><g transform="translate(200.705017, 216.772443)"><g><path d="M 10.0625 0.25 L 8.3125 -3.59375 C 7.863281 -4.550781 7.300781 -5.234375 6.625 -5.640625 C 5.957031 -6.046875 5.097656 -6.25 4.046875 -6.25 L 3.734375 -6.25 L 3.734375 0 L 1.8125 0 L 1.8125 -14.109375 C 2.539062 -14.179688 3.222656 -14.234375 3.859375 -14.265625 C 4.503906 -14.296875 5.207031 -14.3125 5.96875 -14.3125 C 6.832031 -14.3125 7.585938 -14.21875 8.234375 -14.03125 C 8.878906 -13.851562 9.414062 -13.597656 9.84375 -13.265625 C 10.28125 -12.929688 10.609375 -12.535156 10.828125 -12.078125 C 11.046875 -11.617188 11.15625 -11.109375 11.15625 -10.546875 C 11.15625 -9.566406 10.863281 -8.773438 10.28125 -8.171875 C 9.695312 -7.578125 8.851562 -7.128906 7.75 -6.828125 C 8.007812 -6.710938 8.253906 -6.578125 8.484375 -6.421875 C 8.710938 -6.265625 8.925781 -6.070312 9.125 -5.84375 C 9.332031 -5.625 9.535156 -5.359375 9.734375 -5.046875 C 9.929688 -4.742188 10.128906 -4.367188 10.328125 -3.921875 L 11.875 -0.609375 Z M 5.96875 -12.703125 C 5.507812 -12.703125 5.097656 -12.691406 4.734375 -12.671875 C 4.367188 -12.660156 4.035156 -12.640625 3.734375 -12.609375 L 3.734375 -7.859375 L 5.96875 -7.859375 C 6.9375 -7.859375 7.722656 -8.070312 8.328125 -8.5 C 8.929688 -8.9375 9.234375 -9.5625 9.234375 -10.375 C 9.234375 -11.050781 8.953125 -11.609375 8.390625 -12.046875 C 7.828125 -12.484375 7.019531 -12.703125 5.96875 -12.703125 Z M 5.96875 -12.703125 "/></g></g></g><g fill="#707ab7" fill-opacity="1"><g transform="translate(226.041502, 216.772443)"><g><path d="M 1.8125 -14.15625 L 10.3125 -14.15625 L 10.3125 -12.5 L 3.734375 -12.5 L 3.734375 -8.1875 L 9.40625 -8.1875 L 9.40625 -6.578125 L 3.734375 -6.578125 L 3.734375 -1.65625 L 10.3125 -1.65625 L 10.3125 0 L 1.8125 0 Z M 1.8125 -14.15625 "/></g></g></g><g fill="#707ab7" fill-opacity="1"><g transform="translate(250.124653, 216.772443)"><g/></g></g><g fill="#707ab7" fill-opacity="1"><g transform="translate(269.052997, 216.772443)"><g><path d="M 1.8125 -14.109375 C 2.445312 -14.179688 3.066406 -14.234375 3.671875 -14.265625 C 4.285156 -14.296875 4.984375 -14.3125 5.765625 -14.3125 C 6.972656 -14.3125 8.015625 -14.125 8.890625 -13.75 C 9.765625 -13.375 10.492188 -12.851562 11.078125 -12.1875 C 11.660156 -11.53125 12.085938 -10.765625 12.359375 -9.890625 C 12.640625 -9.015625 12.78125 -8.082031 12.78125 -7.09375 C 12.78125 -6.113281 12.632812 -5.179688 12.34375 -4.296875 C 12.0625 -3.410156 11.628906 -2.632812 11.046875 -1.96875 C 10.460938 -1.3125 9.710938 -0.789062 8.796875 -0.40625 C 7.890625 -0.03125 6.804688 0.15625 5.546875 0.15625 C 4.773438 0.15625 4.101562 0.140625 3.53125 0.109375 C 2.957031 0.078125 2.382812 0.0234375 1.8125 -0.046875 Z M 5.703125 -12.65625 C 5.304688 -12.65625 4.945312 -12.644531 4.625 -12.625 C 4.300781 -12.601562 4.003906 -12.582031 3.734375 -12.5625 L 3.734375 -1.625 C 4.023438 -1.582031 4.320312 -1.550781 4.625 -1.53125 C 4.9375 -1.519531 5.257812 -1.515625 5.59375 -1.515625 C 6.5 -1.515625 7.28125 -1.648438 7.9375 -1.921875 C 8.601562 -2.203125 9.144531 -2.585938 9.5625 -3.078125 C 9.988281 -3.578125 10.300781 -4.164062 10.5 -4.84375 C 10.707031 -5.519531 10.8125 -6.269531 10.8125 -7.09375 C 10.8125 -7.820312 10.707031 -8.519531 10.5 -9.1875 C 10.300781 -9.851562 9.992188 -10.445312 9.578125 -10.96875 C 9.160156 -11.488281 8.628906 -11.898438 7.984375 -12.203125 C 7.335938 -12.503906 6.578125 -12.65625 5.703125 -12.65625 Z M 5.703125 -12.65625 "/></g></g></g><g fill="#707ab7" fill-opacity="1"><g transform="translate(295.703447, 216.772443)"><g><path d="M 1.8125 -14.15625 L 10.3125 -14.15625 L 10.3125 -12.5 L 3.734375 -12.5 L 3.734375 -8.1875 L 9.40625 -8.1875 L 9.40625 -6.578125 L 3.734375 -6.578125 L 3.734375 -1.65625 L 10.3125 -1.65625 L 10.3125 0 L 1.8125 0 Z M 1.8125 -14.15625 "/></g></g></g><g fill="#707ab7" fill-opacity="1"><g transform="translate(319.786598, 216.772443)"><g><path d="M 0.203125 -13.640625 L 2.078125 -14.375 L 6.53125 -2.109375 L 11 -14.3125 L 12.734375 -13.640625 L 7.5625 0 L 5.390625 0 Z M 0.203125 -13.640625 "/></g></g></g><g fill="#707ab7" fill-opacity="1"><g transform="translate(234.262489, 178.801644)"><g><path d="M 29.171875 0 L 33.878906 0 L 17.132812 -39.53125 L 16.742188 -39.53125 C 12.488281 -32.308594 7.449219 -22.117188 4.480469 -14.109375 C 3.136719 -10.527344 2.351562 -7.390625 2.070312 -4.925781 C 1.792969 -2.40625 2.40625 -0.726562 3.917969 -0.0546875 C 4.3125 0.28125 4.480469 0.28125 4.816406 0.335938 C 7.335938 0.449219 8.289062 -1.625 9.351562 -4.421875 C 11.144531 -8.511719 13.328125 -14.277344 22.847656 -15.175781 Z M 22.679688 -15.566406 C 12.992188 -14.613281 10.75 -8.734375 8.902344 -4.535156 C 8.007812 -1.960938 7.113281 0 4.871094 -0.167969 C 4.589844 -0.335938 4.421875 -0.335938 4.085938 -0.449219 C 2.742188 -0.894531 2.351562 -2.632812 2.464844 -4.925781 C 2.742188 -7.335938 3.527344 -10.414062 4.871094 -14 C 7.222656 -20.496094 11.03125 -28.109375 14.445312 -34.71875 Z M 22.679688 -15.566406 "/></g></g></g><g fill="#707ab7" fill-opacity="1"><g transform="translate(271.329485, 178.801644)"><g><path d="M 25.644531 -8.289062 C 23.574219 -2.632812 20.71875 -0.449219 15.902344 -0.449219 L 6.4375 -0.449219 L 6.4375 -39.53125 L 1.960938 -39.53125 L 1.960938 0 L 24.300781 0 Z M 25.644531 -8.289062 "/></g></g></g><g fill="#707ab7" fill-opacity="1"><g transform="translate(300.165628, 178.801644)"><g><path d="M 29.171875 0 L 33.878906 0 L 17.132812 -39.53125 L 16.742188 -39.53125 C 12.488281 -32.308594 7.449219 -22.117188 4.480469 -14.109375 C 3.136719 -10.527344 2.351562 -7.390625 2.070312 -4.925781 C 1.792969 -2.40625 2.40625 -0.726562 3.917969 -0.0546875 C 4.3125 0.28125 4.480469 0.28125 4.816406 0.335938 C 7.335938 0.449219 8.289062 -1.625 9.351562 -4.421875 C 11.144531 -8.511719 13.328125 -14.277344 22.847656 -15.175781 Z M 22.679688 -15.566406 C 12.992188 -14.613281 10.75 -8.734375 8.902344 -4.535156 C 8.007812 -1.960938 7.113281 0 4.871094 -0.167969 C 4.589844 -0.335938 4.421875 -0.335938 4.085938 -0.449219 C 2.742188 -0.894531 2.351562 -2.632812 2.464844 -4.925781 C 2.742188 -7.335938 3.527344 -10.414062 4.871094 -14 C 7.222656 -20.496094 11.03125 -28.109375 14.445312 -34.71875 Z M 22.679688 -15.566406 "/></g></g></g><g fill="#707ab7" fill-opacity="1"><g transform="translate(337.232622, 178.801644)"><g><path d="M 1.960938 -39.53125 L 1.960938 0 L 6.160156 0 L 6.160156 -39.140625 C 12.207031 -39.140625 16.6875 -34.605469 20.046875 -28.222656 C 24.191406 -20.101562 26.261719 -8.902344 26.261719 0 L 30.460938 0 L 30.460938 -39.53125 L 26.261719 -39.53125 L 26.261719 -7.390625 C 25.421875 -14.613281 23.574219 -22.34375 20.269531 -28.445312 C 17.023438 -34.941406 12.261719 -39.53125 6.160156 -39.53125 Z M 1.960938 -39.53125 "/></g></g></g><g fill="#707ab7" fill-opacity="1"><g transform="translate(14.344054, 177.989489)"><g><path d="M 42.976562 0 L 49.902344 0 L 25.242188 -58.234375 L 24.664062 -58.234375 C 18.394531 -47.59375 10.96875 -32.582031 6.597656 -20.785156 C 4.621094 -15.507812 3.464844 -10.886719 3.050781 -7.257812 C 2.640625 -3.546875 3.546875 -1.074219 5.773438 -0.0820312 C 6.351562 0.414062 6.597656 0.414062 7.09375 0.496094 C 10.804688 0.660156 12.207031 -2.390625 13.773438 -6.515625 C 16.414062 -12.539062 19.632812 -21.035156 33.652344 -22.351562 Z M 33.40625 -22.929688 C 19.136719 -21.527344 15.835938 -12.867188 13.113281 -6.679688 C 11.796875 -2.886719 10.476562 0 7.175781 -0.246094 C 6.765625 -0.496094 6.515625 -0.496094 6.019531 -0.660156 C 4.042969 -1.320312 3.464844 -3.875 3.628906 -7.257812 C 4.042969 -10.804688 5.195312 -15.34375 7.175781 -20.621094 C 10.640625 -30.191406 16.25 -41.40625 21.28125 -51.140625 Z M 33.40625 -22.929688 "/></g></g></g><g fill="#707ab7" fill-opacity="1"><g transform="translate(71.01246, 178.799124)"><g><path d="M 1.960938 -39.542969 L 1.960938 0 L 6.160156 0 L 6.160156 -39.152344 C 12.210938 -39.152344 16.691406 -34.613281 20.050781 -28.230469 C 24.195312 -20.109375 26.269531 -8.90625 26.269531 0 L 30.46875 0 L 30.46875 -39.542969 L 26.269531 -39.542969 L 26.269531 -7.394531 C 25.429688 -14.617188 23.582031 -22.347656 20.277344 -28.453125 C 17.027344 -34.949219 12.265625 -39.542969 6.160156 -39.542969 Z M 1.960938 -39.542969 "/></g></g></g><g fill="#707ab7" fill-opacity="1"><g transform="translate(104.839116, 178.799124)"><g><path d="M 29.683594 -36.40625 C 30.078125 -37.414062 32.207031 -39.488281 33.660156 -39.597656 L 27.332031 -39.597656 C 28.398438 -39.488281 30.1875 -38.421875 29.011719 -36.125 L 19.773438 -18.203125 L 15.625 -25.09375 L 7 -39.597656 L 1.960938 -39.597656 L 15.625 -16.636719 L 15.625 0 L 20.050781 0 L 20.050781 -17.8125 Z M 29.683594 -36.40625 "/></g></g></g><g fill="#707ab7" fill-opacity="1"><g transform="translate(187.499992, 178.539538)"><g><path d="M 26.640625 -31.308594 C 33.160156 -32.675781 38.46875 -36.699219 38.46875 -43.945312 C 38.46875 -53.199219 28.8125 -56.820312 16.742188 -56.820312 L 2.816406 -56.820312 L 2.816406 0 L 21.890625 0 C 34.285156 -0.0820312 43.945312 -2.816406 43.945312 -15.773438 C 43.945312 -27.203125 36.78125 -30.582031 26.640625 -31.308594 Z M 37.664062 -15.773438 C 37.664062 -1.289062 28.492188 -0.644531 21.246094 -0.644531 L 9.175781 -0.644531 L 9.175781 -44.828125 C 9.820312 -41.691406 10.785156 -38.953125 12.234375 -36.78125 C 14.566406 -33.078125 18.109375 -30.90625 21.890625 -30.90625 C 28.894531 -30.90625 37.664062 -30.179688 37.664062 -15.773438 Z M 32.191406 -43.945312 C 32.191406 -35.171875 27.285156 -31.550781 21.890625 -31.550781 C 18.269531 -31.550781 15.128906 -33.5625 12.878906 -37.183594 C 10.542969 -40.5625 9.175781 -45.390625 9.175781 -50.945312 L 9.175781 -56.257812 L 16.742188 -56.257812 C 24.464844 -56.257812 32.191406 -53.117188 32.191406 -43.945312 Z M 32.191406 -43.945312 "/></g></g></g><g fill="#707ab7" fill-opacity="1"><g transform="translate(133.706729, 178.800795)"><g><path d="M 29.179688 0 L 33.886719 0 L 17.140625 -39.542969 L 16.746094 -39.542969 C 12.488281 -32.316406 7.449219 -22.125 4.480469 -14.113281 C 3.136719 -10.53125 2.351562 -7.394531 2.074219 -4.929688 C 1.792969 -2.410156 2.410156 -0.726562 3.921875 -0.0546875 C 4.3125 0.28125 4.480469 0.28125 4.816406 0.335938 C 7.335938 0.449219 8.289062 -1.625 9.355469 -4.425781 C 11.144531 -8.511719 13.332031 -14.28125 22.851562 -15.179688 Z M 22.683594 -15.570312 C 12.996094 -14.617188 10.753906 -8.738281 8.90625 -4.535156 C 8.007812 -1.960938 7.113281 0 4.871094 -0.167969 C 4.59375 -0.335938 4.425781 -0.335938 4.089844 -0.449219 C 2.746094 -0.894531 2.351562 -2.632812 2.464844 -4.929688 C 2.746094 -7.335938 3.527344 -10.417969 4.871094 -14.003906 C 7.226562 -20.5 11.035156 -28.117188 14.449219 -34.726562 Z M 22.683594 -15.570312 "/></g></g></g></svg>