<svg xmlns="http://www.w3.org/2000/svg" xmlns:xlink="http://www.w3.org/1999/xlink" width="518" zoomAndPan="magnify" viewBox="0 0 388.5 113.999999" height="152" preserveAspectRatio="xMidYMid meet" version="1.0"><defs><g/><clipPath id="1415a769a9"><path d="M 19 84 L 327 84 L 327 113.925781 L 19 113.925781 Z M 19 84 " clip-rule="nonzero"/></clipPath><clipPath id="98959b6401"><path d="M 0 0.0742188 L 85 0.0742188 L 85 105 L 0 105 Z M 0 0.0742188 " clip-rule="nonzero"/></clipPath><clipPath id="18eaa31880"><path d="M 141 0.0742188 L 252 0.0742188 L 252 104 L 141 104 Z M 141 0.0742188 " clip-rule="nonzero"/></clipPath></defs><g clip-path="url(#1415a769a9)"><path stroke-linecap="butt" transform="matrix(0.75, 0, 0, 0.75, 20.111412, 88.423404)" fill="none" stroke-linejoin="miter" d="M 12.507702 22.253172 C 13.153535 22.794839 13.882702 23.237547 14.689994 23.576089 C 15.502494 23.914631 16.445202 24.086506 17.523327 24.086506 C 18.814994 24.086506 19.841036 23.815672 20.596244 23.274006 C 21.351453 22.737547 21.726453 22.00838 21.726453 21.096922 C 21.726453 20.716714 21.67437 20.367755 21.564995 20.044838 C 21.45562 19.716713 21.247286 19.409422 20.929578 19.117755 C 20.617078 18.815672 20.179578 18.518797 19.617078 18.22713 C 19.049369 17.930255 18.314994 17.607338 17.413952 17.263588 C 16.445202 16.888588 15.622285 16.513588 14.95041 16.149005 C 14.278535 15.779213 13.73166 15.372963 13.314993 14.935463 C 12.903535 14.492754 12.60666 14.008379 12.424368 13.482338 C 12.247285 12.951087 12.158743 12.341712 12.158743 11.659421 C 12.158743 10.992754 12.29416 10.362545 12.570202 9.768795 C 12.851452 9.175045 13.268118 8.65942 13.814994 8.22192 C 14.361869 7.779212 15.038952 7.430253 15.835827 7.180253 C 16.637911 6.930253 17.554577 6.805253 18.575411 6.805253 C 19.689994 6.805253 20.684786 6.919837 21.564995 7.143795 C 22.445203 7.367753 23.320203 7.685462 24.184787 8.09692 L 23.242078 10.28442 C 22.627495 9.919837 21.913953 9.622962 21.096244 9.37817 C 20.278536 9.138587 19.419161 9.018795 18.523327 9.018795 C 17.335827 9.018795 16.403536 9.247962 15.716035 9.701087 C 15.033744 10.15942 14.689994 10.763587 14.689994 11.518796 C 14.689994 11.878171 14.736869 12.201087 14.835827 12.482337 C 14.934785 12.758379 15.132702 13.029213 15.429577 13.289629 C 15.726452 13.550046 16.143119 13.815671 16.674369 14.086504 C 17.205619 14.352129 17.908744 14.649004 18.794161 14.977129 C 19.830619 15.367754 20.710828 15.774005 21.429578 16.185463 C 22.148328 16.596921 22.726453 17.03963 23.153536 17.50838 C 23.591036 17.971921 23.903537 18.47713 24.091037 19.018797 C 24.278537 19.555255 24.372287 20.149005 24.372287 20.794839 C 24.372287 21.675047 24.200412 22.456297 23.86187 23.143797 C 23.51812 23.826089 23.044161 24.404214 22.445203 24.883381 C 21.841036 25.357339 21.117078 25.716714 20.273328 25.961506 C 19.429578 26.201089 18.512911 26.320881 17.523327 26.320881 C 16.210827 26.320881 15.01291 26.149006 13.934785 25.794839 C 12.85666 25.445881 11.955618 24.982339 11.216035 24.409422 Z M 44.216039 16.534421 C 44.216039 15.154213 44.419164 13.867754 44.820206 12.685462 C 45.226456 11.497962 45.809789 10.466712 46.575414 9.59692 C 47.335831 8.72192 48.268123 8.039629 49.361873 7.550045 C 50.460832 7.055253 51.710832 6.805253 53.106665 6.805253 C 54.497291 6.805253 55.742082 7.06567 56.846249 7.576087 C 57.955624 8.086504 58.887916 8.779212 59.653541 9.664629 C 60.413958 10.544837 61.0025 11.576087 61.413958 12.747962 C 61.830625 13.925046 62.03375 15.185463 62.03375 16.534421 C 62.03375 17.888588 61.830625 19.154213 61.429583 20.341713 C 61.023333 21.524005 60.434791 22.560464 59.663958 23.451089 C 58.893124 24.341714 57.955624 25.044839 56.861874 25.560464 C 55.762916 26.065673 54.512916 26.320881 53.106665 26.320881 C 51.710832 26.320881 50.460832 26.065673 49.361873 25.560464 C 48.268123 25.044839 47.335831 24.341714 46.575414 23.451089 C 45.809789 22.560464 45.226456 21.524005 44.820206 20.341713 C 44.419164 19.154213 44.216039 17.888588 44.216039 16.534421 Z M 46.830623 16.534421 C 46.830623 17.503171 46.96604 18.44588 47.242081 19.367755 C 47.523331 20.284422 47.93479 21.091714 48.476456 21.794839 C 49.012915 22.497964 49.674373 23.055255 50.455623 23.477131 C 51.236873 23.899006 52.12229 24.112547 53.106665 24.112547 C 54.15354 24.112547 55.064999 23.919839 55.846249 23.529214 C 56.627499 23.143797 57.283749 22.617755 57.814999 21.94588 C 58.346249 21.268797 58.747291 20.466713 59.012916 19.544838 C 59.283749 18.617755 59.419166 17.612546 59.419166 16.534421 C 59.419166 15.565671 59.278541 14.633379 58.986874 13.737546 C 58.700416 12.836504 58.288958 12.039629 57.747291 11.336504 C 57.210833 10.633379 56.549374 10.070879 55.768124 9.649004 C 54.986874 9.227129 54.101457 9.018795 53.106665 9.018795 C 52.12229 9.018795 51.236873 9.211504 50.455623 9.59692 C 49.674373 9.982337 49.012915 10.513587 48.476456 11.190671 C 47.93479 11.862546 47.523331 12.654212 47.242081 13.570879 C 46.96604 14.492754 46.830623 15.477129 46.830623 16.534421 Z M 82.960836 7.12817 L 94.143129 7.12817 L 94.143129 9.341712 L 85.518128 9.341712 L 85.518128 15.107338 L 92.716046 15.107338 L 92.716046 17.211505 L 85.518128 17.211505 L 85.518128 25.997964 L 82.960836 25.997964 Z M 112.372298 7.12817 L 126.523342 7.12817 L 126.523342 9.393795 L 120.731674 9.393795 L 120.731674 25.997964 L 118.169174 25.997964 L 118.169174 9.393795 L 112.372298 9.393795 Z M 144.346261 7.747962 L 146.877511 6.94067 L 151.143136 23.274006 L 155.158762 9.09692 L 158.367096 9.09692 L 162.361888 23.274006 L 166.591055 7.018795 L 168.960847 7.747962 L 163.867096 25.997964 L 160.690013 25.997964 L 156.695221 11.820879 L 152.653553 25.997964 L 149.471261 25.997964 Z M 186.783766 25.326089 L 194.169184 7.12817 L 196.971267 7.12817 L 204.252518 25.326089 L 201.908768 26.268798 L 199.799393 20.878172 L 191.065017 20.878172 L 188.966058 26.216714 Z M 191.877517 18.721922 L 198.966059 18.721922 L 195.440017 9.664629 Z M 235.096272 26.320881 L 232.747314 21.201089 C 232.153564 19.925047 231.408772 19.018797 230.50773 18.47713 C 229.611897 17.935463 228.466063 17.66463 227.059813 17.66463 L 226.658771 17.66463 L 226.658771 25.997964 L 224.096271 25.997964 L 224.096271 7.180253 C 225.070229 7.091712 225.97648 7.029212 226.830646 6.982337 C 227.684813 6.935462 228.617105 6.914628 229.622313 6.914628 C 230.768147 6.914628 231.778564 7.03442 232.643147 7.279212 C 233.507731 7.524003 234.226481 7.867753 234.799397 8.31567 C 235.377523 8.763587 235.809814 9.294837 236.101481 9.90942 C 236.403564 10.518796 236.549398 11.190671 236.549398 11.925046 C 236.549398 13.237546 236.158773 14.294838 235.377523 15.091713 C 234.596272 15.893796 233.471272 16.492755 231.997314 16.888588 C 232.356689 17.050046 232.690022 17.232338 232.992106 17.44588 C 233.299397 17.649005 233.585856 17.904213 233.851481 18.201088 C 234.122314 18.492755 234.387939 18.846922 234.648356 19.25838 C 234.913981 19.675047 235.179606 20.175047 235.445231 20.768797 L 237.492106 25.190672 Z M 229.622313 9.070879 C 229.012938 9.070879 228.460855 9.081295 227.97648 9.09692 C 227.492105 9.112545 227.054605 9.143795 226.658771 9.175045 L 226.658771 15.513588 L 229.622313 15.513588 C 230.91398 15.513588 231.966064 15.227129 232.773355 14.654213 C 233.585856 14.076088 233.992106 13.253171 233.992106 12.169837 C 233.992106 11.274004 233.611897 10.529212 232.856689 9.945879 C 232.10148 9.362545 231.023355 9.070879 229.622313 9.070879 Z M 257.877525 7.12817 L 269.200444 7.12817 L 269.200444 9.341712 L 260.440026 9.341712 L 260.440026 15.081296 L 267.99211 15.081296 L 267.99211 17.237546 L 260.440026 17.237546 L 260.440026 23.789631 L 269.200444 23.789631 L 269.200444 25.997964 L 257.877525 25.997964 Z M 315.226491 7.180253 C 316.070241 7.091712 316.898367 7.029212 317.705658 6.982337 C 318.51295 6.935462 319.440034 6.914628 320.4817 6.914628 C 322.101492 6.914628 323.492117 7.164628 324.658784 7.669837 C 325.825451 8.169837 326.799409 8.862545 327.570243 9.742754 C 328.346285 10.622962 328.919201 11.649004 329.288993 12.815671 C 329.658785 13.982338 329.841077 15.221921 329.841077 16.534421 C 329.841077 17.846921 329.653577 19.091713 329.273368 20.274005 C 328.898368 21.451089 328.315035 22.47713 327.528576 23.362547 C 326.747326 24.237547 325.752534 24.935464 324.533784 25.445881 C 323.325451 25.961506 321.872325 26.216714 320.184825 26.216714 C 319.163992 26.216714 318.268158 26.190673 317.507742 26.143798 C 316.742116 26.102131 315.9817 26.034423 315.226491 25.945881 Z M 320.403575 9.122962 C 319.877534 9.122962 319.403575 9.138587 318.971283 9.164629 C 318.5442 9.19067 318.148367 9.22192 317.788992 9.25317 L 317.788992 23.841714 C 318.163992 23.899006 318.559825 23.935464 318.971283 23.951089 C 319.38795 23.971922 319.820242 23.977131 320.268159 23.977131 C 321.471284 23.977131 322.512951 23.794839 323.387951 23.425047 C 324.273367 23.055255 324.997326 22.544839 325.565034 21.893797 C 326.127534 21.232339 326.544201 20.451088 326.815034 19.544838 C 327.085868 18.63338 327.221285 17.63338 327.221285 16.534421 C 327.221285 15.565671 327.085868 14.638588 326.815034 13.753171 C 326.544201 12.862546 326.132743 12.065671 325.575451 11.372962 C 325.023368 10.680254 324.315034 10.133379 323.450451 9.727129 C 322.585867 9.326087 321.570242 9.122962 320.403575 9.122962 Z M 350.762954 7.12817 L 362.085872 7.12817 L 362.085872 9.341712 L 353.325455 9.341712 L 353.325455 15.081296 L 360.872331 15.081296 L 360.872331 17.237546 L 353.325455 17.237546 L 353.325455 23.789631 L 362.085872 23.789631 L 362.085872 25.997964 L 350.762954 25.997964 Z M 380.716083 7.800045 L 383.221292 6.831295 L 389.153584 23.195881 L 395.111918 6.914628 L 397.424419 7.800045 L 390.528584 25.997964 L 387.643167 25.997964 Z M 380.716083 7.800045 " stroke="#060644" stroke-width="2.022623" stroke-opacity="1" stroke-miterlimit="4"/></g><g fill="#060644" fill-opacity="1"><g transform="translate(27.916099, 107.923402)"><g><path d="M 1.578125 -2.8125 C 2.066406 -2.40625 2.613281 -2.070312 3.21875 -1.8125 C 3.820312 -1.5625 4.53125 -1.4375 5.34375 -1.4375 C 6.3125 -1.4375 7.078125 -1.640625 7.640625 -2.046875 C 8.203125 -2.453125 8.484375 -3 8.484375 -3.6875 C 8.484375 -3.96875 8.441406 -4.226562 8.359375 -4.46875 C 8.285156 -4.707031 8.128906 -4.9375 7.890625 -5.15625 C 7.660156 -5.382812 7.332031 -5.609375 6.90625 -5.828125 C 6.476562 -6.054688 5.925781 -6.296875 5.25 -6.546875 C 4.53125 -6.828125 3.914062 -7.101562 3.40625 -7.375 C 2.90625 -7.65625 2.5 -7.960938 2.1875 -8.296875 C 1.875 -8.628906 1.648438 -8.992188 1.515625 -9.390625 C 1.378906 -9.785156 1.3125 -10.238281 1.3125 -10.75 C 1.3125 -11.25 1.414062 -11.722656 1.625 -12.171875 C 1.832031 -12.617188 2.140625 -13.003906 2.546875 -13.328125 C 2.960938 -13.660156 3.46875 -13.921875 4.0625 -14.109375 C 4.664062 -14.296875 5.351562 -14.390625 6.125 -14.390625 C 6.957031 -14.390625 7.703125 -14.304688 8.359375 -14.140625 C 9.023438 -13.972656 9.679688 -13.734375 10.328125 -13.421875 L 9.625 -11.78125 C 9.164062 -12.050781 8.628906 -12.273438 8.015625 -12.453125 C 7.398438 -12.640625 6.753906 -12.734375 6.078125 -12.734375 C 5.191406 -12.734375 4.492188 -12.5625 3.984375 -12.21875 C 3.472656 -11.875 3.21875 -11.421875 3.21875 -10.859375 C 3.21875 -10.585938 3.253906 -10.347656 3.328125 -10.140625 C 3.398438 -9.929688 3.546875 -9.726562 3.765625 -9.53125 C 3.992188 -9.332031 4.304688 -9.132812 4.703125 -8.9375 C 5.097656 -8.738281 5.625 -8.515625 6.28125 -8.265625 C 7.0625 -7.972656 7.722656 -7.671875 8.265625 -7.359375 C 8.804688 -7.046875 9.238281 -6.710938 9.5625 -6.359375 C 9.882812 -6.015625 10.113281 -5.640625 10.25 -5.234375 C 10.394531 -4.828125 10.46875 -4.382812 10.46875 -3.90625 C 10.46875 -3.238281 10.335938 -2.648438 10.078125 -2.140625 C 9.828125 -1.628906 9.472656 -1.191406 9.015625 -0.828125 C 8.566406 -0.472656 8.023438 -0.203125 7.390625 -0.015625 C 6.765625 0.160156 6.082031 0.25 5.34375 0.25 C 4.351562 0.25 3.453125 0.117188 2.640625 -0.140625 C 1.835938 -0.410156 1.160156 -0.757812 0.609375 -1.1875 Z M 1.578125 -2.8125 "/></g></g></g><g fill="#060644" fill-opacity="1"><g transform="translate(52.262051, 107.923402)"><g><path d="M 1.015625 -7.09375 C 1.015625 -8.132812 1.164062 -9.097656 1.46875 -9.984375 C 1.769531 -10.878906 2.207031 -11.648438 2.78125 -12.296875 C 3.351562 -12.953125 4.050781 -13.460938 4.875 -13.828125 C 5.695312 -14.203125 6.632812 -14.390625 7.6875 -14.390625 C 8.71875 -14.390625 9.648438 -14.195312 10.484375 -13.8125 C 11.316406 -13.4375 12.019531 -12.914062 12.59375 -12.25 C 13.164062 -11.59375 13.601562 -10.820312 13.90625 -9.9375 C 14.21875 -9.050781 14.375 -8.101562 14.375 -7.09375 C 14.375 -6.082031 14.222656 -5.128906 13.921875 -4.234375 C 13.617188 -3.347656 13.175781 -2.570312 12.59375 -1.90625 C 12.019531 -1.238281 11.320312 -0.710938 10.5 -0.328125 C 9.675781 0.0546875 8.738281 0.25 7.6875 0.25 C 6.632812 0.25 5.695312 0.0546875 4.875 -0.328125 C 4.050781 -0.710938 3.351562 -1.238281 2.78125 -1.90625 C 2.207031 -2.570312 1.769531 -3.347656 1.46875 -4.234375 C 1.164062 -5.128906 1.015625 -6.082031 1.015625 -7.09375 Z M 2.96875 -7.09375 C 2.96875 -6.363281 3.070312 -5.65625 3.28125 -4.96875 C 3.488281 -4.28125 3.796875 -3.671875 4.203125 -3.140625 C 4.609375 -2.617188 5.101562 -2.203125 5.6875 -1.890625 C 6.28125 -1.578125 6.945312 -1.421875 7.6875 -1.421875 C 8.46875 -1.421875 9.148438 -1.5625 9.734375 -1.84375 C 10.316406 -2.132812 10.804688 -2.53125 11.203125 -3.03125 C 11.609375 -3.539062 11.910156 -4.144531 12.109375 -4.84375 C 12.316406 -5.539062 12.421875 -6.289062 12.421875 -7.09375 C 12.421875 -7.820312 12.3125 -8.519531 12.09375 -9.1875 C 11.875 -9.863281 11.5625 -10.460938 11.15625 -10.984375 C 10.75 -11.515625 10.253906 -11.9375 9.671875 -12.25 C 9.085938 -12.570312 8.425781 -12.734375 7.6875 -12.734375 C 6.945312 -12.734375 6.28125 -12.585938 5.6875 -12.296875 C 5.101562 -12.015625 4.609375 -11.617188 4.203125 -11.109375 C 3.796875 -10.609375 3.488281 -10.015625 3.28125 -9.328125 C 3.070312 -8.640625 2.96875 -7.894531 2.96875 -7.09375 Z M 2.96875 -7.09375 "/></g></g></g><g fill="#060644" fill-opacity="1"><g transform="translate(80.509476, 107.923402)"><g><path d="M 1.8125 -14.15625 L 10.203125 -14.15625 L 10.203125 -12.5 L 3.734375 -12.5 L 3.734375 -8.171875 L 9.140625 -8.171875 L 9.140625 -6.59375 L 3.734375 -6.59375 L 3.734375 0 L 1.8125 0 Z M 1.8125 -14.15625 "/></g></g></g><g fill="#060644" fill-opacity="1"><g transform="translate(104.188329, 107.923402)"><g><path d="M 0.203125 -14.15625 L 10.8125 -14.15625 L 10.8125 -12.453125 L 6.46875 -12.453125 L 6.46875 0 L 4.546875 0 L 4.546875 -12.453125 L 0.203125 -12.453125 Z M 0.203125 -14.15625 "/></g></g></g><g fill="#060644" fill-opacity="1"><g transform="translate(128.06933, 107.923402)"><g><path d="M 0.296875 -13.6875 L 2.203125 -14.296875 L 5.390625 -2.046875 L 8.40625 -12.671875 L 10.8125 -12.671875 L 13.8125 -2.046875 L 16.984375 -14.234375 L 18.765625 -13.6875 L 14.9375 0 L 12.5625 0 L 9.5625 -10.640625 L 6.53125 0 L 4.140625 0 Z M 0.296875 -13.6875 "/></g></g></g><g fill="#060644" fill-opacity="1"><g transform="translate(159.99587, 107.923402)"><g><path d="M 0.203125 -0.5 L 5.734375 -14.15625 L 7.84375 -14.15625 L 13.296875 -0.5 L 11.546875 0.203125 L 9.96875 -3.84375 L 3.421875 -3.84375 L 1.84375 0.15625 Z M 4.03125 -5.453125 L 9.34375 -5.453125 L 6.6875 -12.25 Z M 4.03125 -5.453125 "/></g></g></g><g fill="#060644" fill-opacity="1"><g transform="translate(186.363306, 107.923402)"><g><path d="M 10.0625 0.25 L 8.3125 -3.59375 C 7.863281 -4.550781 7.300781 -5.234375 6.625 -5.640625 C 5.957031 -6.046875 5.097656 -6.25 4.046875 -6.25 L 3.734375 -6.25 L 3.734375 0 L 1.8125 0 L 1.8125 -14.109375 C 2.539062 -14.179688 3.222656 -14.234375 3.859375 -14.265625 C 4.503906 -14.296875 5.207031 -14.3125 5.96875 -14.3125 C 6.832031 -14.3125 7.585938 -14.21875 8.234375 -14.03125 C 8.878906 -13.851562 9.414062 -13.597656 9.84375 -13.265625 C 10.28125 -12.929688 10.609375 -12.535156 10.828125 -12.078125 C 11.046875 -11.617188 11.15625 -11.109375 11.15625 -10.546875 C 11.15625 -9.566406 10.863281 -8.773438 10.28125 -8.171875 C 9.695312 -7.578125 8.851562 -7.128906 7.75 -6.828125 C 8.007812 -6.710938 8.253906 -6.578125 8.484375 -6.421875 C 8.710938 -6.265625 8.925781 -6.070312 9.125 -5.84375 C 9.332031 -5.625 9.535156 -5.359375 9.734375 -5.046875 C 9.929688 -4.742188 10.128906 -4.367188 10.328125 -3.921875 L 11.875 -0.609375 Z M 5.96875 -12.703125 C 5.507812 -12.703125 5.097656 -12.691406 4.734375 -12.671875 C 4.367188 -12.660156 4.035156 -12.640625 3.734375 -12.609375 L 3.734375 -7.859375 L 5.96875 -7.859375 C 6.9375 -7.859375 7.722656 -8.070312 8.328125 -8.5 C 8.929688 -8.9375 9.234375 -9.5625 9.234375 -10.375 C 9.234375 -11.050781 8.953125 -11.609375 8.390625 -12.046875 C 7.828125 -12.484375 7.019531 -12.703125 5.96875 -12.703125 Z M 5.96875 -12.703125 "/></g></g></g><g fill="#060644" fill-opacity="1"><g transform="translate(211.69979, 107.923402)"><g><path d="M 1.8125 -14.15625 L 10.3125 -14.15625 L 10.3125 -12.5 L 3.734375 -12.5 L 3.734375 -8.1875 L 9.40625 -8.1875 L 9.40625 -6.578125 L 3.734375 -6.578125 L 3.734375 -1.65625 L 10.3125 -1.65625 L 10.3125 0 L 1.8125 0 Z M 1.8125 -14.15625 "/></g></g></g><g fill="#060644" fill-opacity="1"><g transform="translate(235.782939, 107.923402)"><g/></g></g><g fill="#060644" fill-opacity="1"><g transform="translate(254.711281, 107.923402)"><g><path d="M 1.8125 -14.109375 C 2.445312 -14.179688 3.066406 -14.234375 3.671875 -14.265625 C 4.285156 -14.296875 4.984375 -14.3125 5.765625 -14.3125 C 6.972656 -14.3125 8.015625 -14.125 8.890625 -13.75 C 9.765625 -13.375 10.492188 -12.851562 11.078125 -12.1875 C 11.660156 -11.53125 12.085938 -10.765625 12.359375 -9.890625 C 12.640625 -9.015625 12.78125 -8.082031 12.78125 -7.09375 C 12.78125 -6.113281 12.632812 -5.179688 12.34375 -4.296875 C 12.0625 -3.410156 11.628906 -2.632812 11.046875 -1.96875 C 10.460938 -1.3125 9.710938 -0.789062 8.796875 -0.40625 C 7.890625 -0.03125 6.804688 0.15625 5.546875 0.15625 C 4.773438 0.15625 4.101562 0.140625 3.53125 0.109375 C 2.957031 0.078125 2.382812 0.0234375 1.8125 -0.046875 Z M 5.703125 -12.65625 C 5.304688 -12.65625 4.945312 -12.644531 4.625 -12.625 C 4.300781 -12.601562 4.003906 -12.582031 3.734375 -12.5625 L 3.734375 -1.625 C 4.023438 -1.582031 4.320312 -1.550781 4.625 -1.53125 C 4.9375 -1.519531 5.257812 -1.515625 5.59375 -1.515625 C 6.5 -1.515625 7.28125 -1.648438 7.9375 -1.921875 C 8.601562 -2.203125 9.144531 -2.585938 9.5625 -3.078125 C 9.988281 -3.578125 10.300781 -4.164062 10.5 -4.84375 C 10.707031 -5.519531 10.8125 -6.269531 10.8125 -7.09375 C 10.8125 -7.820312 10.707031 -8.519531 10.5 -9.1875 C 10.300781 -9.851562 9.992188 -10.445312 9.578125 -10.96875 C 9.160156 -11.488281 8.628906 -11.898438 7.984375 -12.203125 C 7.335938 -12.503906 6.578125 -12.65625 5.703125 -12.65625 Z M 5.703125 -12.65625 "/></g></g></g><g fill="#060644" fill-opacity="1"><g transform="translate(281.36173, 107.923402)"><g><path d="M 1.8125 -14.15625 L 10.3125 -14.15625 L 10.3125 -12.5 L 3.734375 -12.5 L 3.734375 -8.1875 L 9.40625 -8.1875 L 9.40625 -6.578125 L 3.734375 -6.578125 L 3.734375 -1.65625 L 10.3125 -1.65625 L 10.3125 0 L 1.8125 0 Z M 1.8125 -14.15625 "/></g></g></g><g fill="#060644" fill-opacity="1"><g transform="translate(305.444879, 107.923402)"><g><path d="M 0.203125 -13.640625 L 2.078125 -14.375 L 6.53125 -2.109375 L 11 -14.3125 L 12.734375 -13.640625 L 7.5625 0 L 5.390625 0 Z M 0.203125 -13.640625 "/></g></g></g><path stroke-linecap="butt" transform="matrix(0.75, 0, 0, 0.75, 219.92079, 19.7026)" fill="none" stroke-linejoin="miter" d="M 38.897285 67.000709 L 45.168119 67.000709 L 22.839991 14.28716 L 22.329574 14.28716 C 16.642074 23.927787 9.93374 37.505913 5.980614 48.188206 C 4.173322 52.964249 3.136864 57.141333 2.77228 60.438208 C 2.386864 63.792375 3.20978 66.031959 5.230614 66.927792 C 5.741031 67.365292 5.980614 67.365292 6.418114 67.453834 C 9.787906 67.599667 11.048323 64.828834 12.470198 61.094458 C 14.855615 55.646541 17.772282 47.969456 30.459784 46.766331 Z M 30.241034 46.24029 C 17.313949 47.516331 14.324365 55.354874 11.866031 60.948625 C 10.68374 64.391334 9.480614 67.000709 6.491031 66.781959 C 6.126447 66.542375 5.907697 66.542375 5.449364 66.396542 C 3.662905 65.797584 3.136864 63.479875 3.282697 60.438208 C 3.662905 57.214249 4.704572 53.110082 6.491031 48.33404 C 9.626448 39.677789 14.709782 29.526746 19.267074 20.703828 Z M 83.616041 55.953832 C 80.845207 63.479875 77.05354 66.396542 70.621247 66.396542 L 58.006662 66.396542 L 58.006662 14.28716 L 52.027495 14.28716 L 52.027495 67.000709 L 81.829582 67.000709 Z M 126.767088 67.000709 L 133.037922 67.000709 L 110.709794 14.28716 L 110.199378 14.28716 C 104.511877 23.927787 97.803543 37.505913 93.850417 48.188206 C 92.043125 52.964249 91.006667 57.141333 90.642083 60.438208 C 90.256667 63.792375 91.079583 66.031959 93.100417 66.927792 C 93.610834 67.365292 93.850417 67.365292 94.287917 67.453834 C 97.657709 67.599667 98.918126 64.828834 100.340001 61.094458 C 102.725418 55.646541 105.642085 47.969456 118.329587 46.766331 Z M 118.110837 46.24029 C 105.18896 47.516331 102.199377 55.354874 99.735835 60.948625 C 98.553543 64.391334 97.350418 67.000709 94.360834 66.781959 C 93.996251 66.542375 93.7775 66.542375 93.319167 66.396542 C 91.532709 65.797584 91.006667 63.479875 91.1525 60.438208 C 91.532709 57.214249 92.574375 53.110082 94.360834 48.33404 C 97.496251 39.677789 102.579585 29.526746 107.136877 20.703828 Z M 139.902507 14.28716 L 139.902507 67.000709 L 145.511882 67.000709 L 145.511882 14.813202 C 153.569175 14.813202 159.548342 20.865286 164.017093 29.380912 C 169.537927 40.20383 172.308761 55.136124 172.308761 67.000709 L 177.902511 67.000709 L 177.902511 14.28716 L 172.308761 14.28716 L 172.308761 57.141333 C 171.194177 47.516331 168.720219 37.214247 164.324385 29.068412 C 159.985842 20.412161 153.642092 14.28716 145.511882 14.28716 Z M 139.902507 14.28716 " stroke="#060644" stroke-width="5.600002" stroke-opacity="1" stroke-miterlimit="4"/><g fill="#060644" fill-opacity="1"><g transform="translate(219.92079, 69.952593)"><g><path d="M 29.171875 0 L 33.878906 0 L 17.132812 -39.53125 L 16.742188 -39.53125 C 12.488281 -32.308594 7.449219 -22.117188 4.480469 -14.109375 C 3.136719 -10.527344 2.351562 -7.390625 2.070312 -4.925781 C 1.792969 -2.40625 2.40625 -0.726562 3.917969 -0.0546875 C 4.3125 0.28125 4.480469 0.28125 4.816406 0.335938 C 7.335938 0.449219 8.289062 -1.625 9.351562 -4.421875 C 11.144531 -8.511719 13.328125 -14.277344 22.847656 -15.175781 Z M 22.679688 -15.566406 C 12.992188 -14.613281 10.75 -8.734375 8.902344 -4.535156 C 8.007812 -1.960938 7.113281 0 4.871094 -0.167969 C 4.589844 -0.335938 4.421875 -0.335938 4.085938 -0.449219 C 2.742188 -0.894531 2.351562 -2.632812 2.464844 -4.925781 C 2.742188 -7.335938 3.527344 -10.414062 4.871094 -14 C 7.222656 -20.496094 11.03125 -28.109375 14.445312 -34.71875 Z M 22.679688 -15.566406 "/></g></g></g><g fill="#060644" fill-opacity="1"><g transform="translate(256.987784, 69.952593)"><g><path d="M 25.644531 -8.289062 C 23.574219 -2.632812 20.71875 -0.449219 15.902344 -0.449219 L 6.4375 -0.449219 L 6.4375 -39.53125 L 1.960938 -39.53125 L 1.960938 0 L 24.300781 0 Z M 25.644531 -8.289062 "/></g></g></g><g fill="#060644" fill-opacity="1"><g transform="translate(285.823925, 69.952593)"><g><path d="M 29.171875 0 L 33.878906 0 L 17.132812 -39.53125 L 16.742188 -39.53125 C 12.488281 -32.308594 7.449219 -22.117188 4.480469 -14.109375 C 3.136719 -10.527344 2.351562 -7.390625 2.070312 -4.925781 C 1.792969 -2.40625 2.40625 -0.726562 3.917969 -0.0546875 C 4.3125 0.28125 4.480469 0.28125 4.816406 0.335938 C 7.335938 0.449219 8.289062 -1.625 9.351562 -4.421875 C 11.144531 -8.511719 13.328125 -14.277344 22.847656 -15.175781 Z M 22.679688 -15.566406 C 12.992188 -14.613281 10.75 -8.734375 8.902344 -4.535156 C 8.007812 -1.960938 7.113281 0 4.871094 -0.167969 C 4.589844 -0.335938 4.421875 -0.335938 4.085938 -0.449219 C 2.742188 -0.894531 2.351562 -2.632812 2.464844 -4.925781 C 2.742188 -7.335938 3.527344 -10.414062 4.871094 -14 C 7.222656 -20.496094 11.03125 -28.109375 14.445312 -34.71875 Z M 22.679688 -15.566406 "/></g></g></g><g fill="#060644" fill-opacity="1"><g transform="translate(322.890916, 69.952593)"><g><path d="M 1.960938 -39.53125 L 1.960938 0 L 6.160156 0 L 6.160156 -39.140625 C 12.207031 -39.140625 16.6875 -34.605469 20.046875 -28.222656 C 24.191406 -20.101562 26.261719 -8.902344 26.261719 0 L 30.460938 0 L 30.460938 -39.53125 L 26.261719 -39.53125 L 26.261719 -7.390625 C 25.421875 -14.613281 23.574219 -22.34375 20.269531 -28.445312 C 17.023438 -34.941406 12.261719 -39.53125 6.160156 -39.53125 Z M 1.960938 -39.53125 "/></g></g></g><g clip-path="url(#98959b6401)"><path stroke-linecap="butt" transform="matrix(0.75, 0, 0, 0.75, 0.00235488, -8.109547)" fill="none" stroke-linejoin="miter" d="M 57.298951 103.000242 L 66.533327 103.000242 L 33.642698 25.349191 L 32.892698 25.349191 C 24.512488 39.552317 14.632279 59.557528 8.809361 75.291906 C 6.147903 82.323156 4.616652 88.474199 4.080194 93.333575 C 3.517694 98.276284 4.726027 101.578367 7.705194 102.890867 C 8.460403 103.536701 8.809361 103.536701 9.449986 103.672118 C 14.418737 103.885659 16.272904 99.802325 18.366654 94.302325 C 21.88228 86.271074 26.179155 74.968989 44.866658 73.198155 Z M 44.543741 72.416905 C 25.50728 74.297114 21.106238 85.84399 17.481237 94.083575 C 15.736446 99.1617 13.960404 103.000242 9.559361 102.677326 C 9.022903 102.328367 8.699986 102.328367 8.028111 102.114826 C 5.397903 101.229409 4.616652 97.81795 4.835402 93.333575 C 5.397903 88.583574 6.929153 82.541906 9.559361 75.505447 C 14.179154 62.750237 21.668738 47.79711 28.382281 34.797109 Z M 44.543741 72.416905 " stroke="#060644" stroke-width="8.2485" stroke-opacity="1" stroke-miterlimit="4"/></g><g fill="#060644" fill-opacity="1"><g transform="translate(0.00235488, 69.140443)"><g><path d="M 42.976562 0 L 49.902344 0 L 25.242188 -58.234375 L 24.664062 -58.234375 C 18.394531 -47.59375 10.96875 -32.582031 6.597656 -20.785156 C 4.621094 -15.507812 3.464844 -10.886719 3.050781 -7.257812 C 2.640625 -3.546875 3.546875 -1.074219 5.773438 -0.0820312 C 6.351562 0.414062 6.597656 0.414062 7.09375 0.496094 C 10.804688 0.660156 12.207031 -2.390625 13.773438 -6.515625 C 16.414062 -12.539062 19.632812 -21.035156 33.652344 -22.351562 Z M 33.40625 -22.929688 C 19.136719 -21.527344 15.835938 -12.867188 13.113281 -6.679688 C 11.796875 -2.886719 10.476562 0 7.175781 -0.246094 C 6.765625 -0.496094 6.515625 -0.496094 6.019531 -0.660156 C 4.042969 -1.320312 3.464844 -3.875 3.628906 -7.257812 C 4.042969 -10.804688 5.195312 -15.34375 7.175781 -20.621094 C 10.640625 -30.191406 16.25 -41.40625 21.28125 -51.140625 Z M 33.40625 -22.929688 "/></g></g></g><path stroke-linecap="butt" transform="matrix(0.75, 0, 0, 0.75, 56.670759, 19.700087)" fill="none" stroke-linejoin="miter" d="M 2.605655 14.269677 L 2.605655 66.99885 L 8.220239 66.99885 L 8.220239 14.800927 C 16.28274 14.800927 22.261907 20.853011 26.730658 29.368637 C 32.251492 40.196764 35.022326 55.129057 35.022326 66.99885 L 40.621285 66.99885 L 40.621285 14.269677 L 35.022326 14.269677 L 35.022326 57.134266 C 33.912951 47.509265 31.433784 37.20718 27.03795 29.056137 C 22.699408 20.399886 16.355657 14.269677 8.220239 14.269677 Z M 84.683791 18.467594 C 85.215041 17.118636 88.037958 14.342594 89.991083 14.19676 L 81.548374 14.19676 C 82.970249 14.342594 85.360874 15.764469 83.793166 18.832178 L 71.465039 42.733222 L 65.944205 33.545721 L 54.438995 14.19676 L 47.709827 14.19676 L 65.944205 44.811348 L 65.944205 66.99885 L 71.829622 66.99885 L 71.829622 43.243639 Z M 84.683791 18.467594 " stroke="#060644" stroke-width="5.601398" stroke-opacity="1" stroke-miterlimit="4"/><g fill="#060644" fill-opacity="1"><g transform="translate(56.670759, 69.950081)"><g><path d="M 1.960938 -39.542969 L 1.960938 0 L 6.160156 0 L 6.160156 -39.152344 C 12.210938 -39.152344 16.691406 -34.613281 20.050781 -28.230469 C 24.195312 -20.109375 26.269531 -8.90625 26.269531 0 L 30.46875 0 L 30.46875 -39.542969 L 26.269531 -39.542969 L 26.269531 -7.394531 C 25.429688 -14.617188 23.582031 -22.347656 20.277344 -28.453125 C 17.027344 -34.949219 12.265625 -39.542969 6.160156 -39.542969 Z M 1.960938 -39.542969 "/></g></g></g><g fill="#060644" fill-opacity="1"><g transform="translate(90.497413, 69.950081)"><g><path d="M 29.683594 -36.40625 C 30.078125 -37.414062 32.207031 -39.488281 33.660156 -39.597656 L 27.332031 -39.597656 C 28.398438 -39.488281 30.1875 -38.421875 29.011719 -36.125 L 19.773438 -18.203125 L 15.625 -25.09375 L 7 -39.597656 L 1.960938 -39.597656 L 15.625 -16.636719 L 15.625 0 L 20.050781 0 L 20.050781 -17.8125 Z M 29.683594 -36.40625 "/></g></g></g><g clip-path="url(#18eaa31880)"><path stroke-linecap="butt" transform="matrix(0.75, 0, 0, 0.75, 173.158286, -6.059496)" fill="none" stroke-linejoin="miter" d="M 35.523332 59.266836 C 44.22125 57.433502 51.299376 52.058501 51.299376 42.417875 C 51.299376 30.079332 38.408749 25.235581 22.320205 25.235581 L 3.747286 25.235581 L 3.747286 101.001216 L 29.184789 101.001216 C 45.716042 100.897049 58.580627 97.251216 58.580627 79.964755 C 58.580627 64.740795 49.044167 60.235586 35.523332 59.266836 Z M 50.22125 79.964755 C 50.22125 99.272049 37.986874 100.136633 28.320206 100.136633 L 12.23687 100.136633 L 12.23687 41.240792 C 13.101454 45.407459 14.382704 49.074126 16.320204 51.954335 C 19.413955 56.90746 24.153539 59.787669 29.184789 59.787669 C 38.512916 59.787669 50.22125 60.756419 50.22125 79.964755 Z M 42.913958 42.417875 C 42.913958 54.105377 36.387915 58.923086 29.184789 58.923086 C 24.36708 58.923086 20.174372 56.25121 17.158746 51.433501 C 14.070204 46.928292 12.23687 40.480375 12.23687 33.068916 L 12.23687 25.99079 L 22.320205 25.99079 C 32.617081 25.99079 42.913958 30.183499 42.913958 42.417875 Z M 42.913958 42.417875 " stroke="#060644" stroke-width="8.04855" stroke-opacity="1" stroke-miterlimit="4"/></g><g fill="#060644" fill-opacity="1"><g transform="translate(173.158286, 69.690494)"><g><path d="M 26.640625 -31.308594 C 33.160156 -32.675781 38.46875 -36.699219 38.46875 -43.945312 C 38.46875 -53.199219 28.8125 -56.820312 16.742188 -56.820312 L 2.816406 -56.820312 L 2.816406 0 L 21.890625 0 C 34.285156 -0.0820312 43.945312 -2.816406 43.945312 -15.773438 C 43.945312 -27.203125 36.78125 -30.582031 26.640625 -31.308594 Z M 37.664062 -15.773438 C 37.664062 -1.289062 28.492188 -0.644531 21.246094 -0.644531 L 9.175781 -0.644531 L 9.175781 -44.828125 C 9.820312 -41.691406 10.785156 -38.953125 12.234375 -36.78125 C 14.566406 -33.078125 18.109375 -30.90625 21.890625 -30.90625 C 28.894531 -30.90625 37.664062 -30.179688 37.664062 -15.773438 Z M 32.191406 -43.945312 C 32.191406 -35.171875 27.285156 -31.550781 21.890625 -31.550781 C 18.269531 -31.550781 15.128906 -33.5625 12.878906 -37.183594 C 10.542969 -40.5625 9.175781 -45.390625 9.175781 -50.945312 L 9.175781 -56.257812 L 16.742188 -56.257812 C 24.464844 -56.257812 32.191406 -53.117188 32.191406 -43.945312 Z M 32.191406 -43.945312 "/></g></g></g><path stroke-linecap="butt" transform="matrix(0.75, 0, 0, 0.75, 119.365033, 19.701761)" fill="none" stroke-linejoin="miter" d="M 38.909128 67.001828 L 45.179962 67.001828 L 22.846626 14.272654 L 22.336209 14.272654 C 16.648708 23.918489 9.935166 37.501824 5.98204 48.184117 C 4.174748 52.960159 3.13829 57.137243 2.773707 60.434119 C 2.38829 63.793494 3.211207 66.033078 5.23204 66.928911 C 5.742457 67.366411 5.98204 67.366411 6.41954 67.454953 C 9.789332 67.600786 11.049749 64.829952 12.471624 61.090369 C 14.857041 55.642451 17.778917 47.965367 30.466418 46.762242 Z M 30.247668 46.230992 C 17.320583 47.507034 14.331 55.350785 11.867458 60.944535 C 10.685166 64.392452 9.482041 67.001828 6.492457 66.783078 C 6.127874 66.543494 5.909124 66.543494 5.45079 66.397661 C 3.664332 65.798703 3.13829 63.480994 3.284123 60.434119 C 3.664332 57.21016 4.705998 53.105993 6.492457 48.32995 C 9.627874 39.668491 14.711208 29.51224 19.273709 20.689322 Z M 30.247668 46.230992 " stroke="#060644" stroke-width="5.601398" stroke-opacity="1" stroke-miterlimit="4"/><g fill="#060644" fill-opacity="1"><g transform="translate(119.365033, 69.951754)"><g><path d="M 29.179688 0 L 33.886719 0 L 17.140625 -39.542969 L 16.746094 -39.542969 C 12.488281 -32.316406 7.449219 -22.125 4.480469 -14.113281 C 3.136719 -10.53125 2.351562 -7.394531 2.074219 -4.929688 C 1.792969 -2.410156 2.410156 -0.726562 3.921875 -0.0546875 C 4.3125 0.28125 4.480469 0.28125 4.816406 0.335938 C 7.335938 0.449219 8.289062 -1.625 9.355469 -4.425781 C 11.144531 -8.511719 13.332031 -14.28125 22.851562 -15.179688 Z M 22.683594 -15.570312 C 12.996094 -14.617188 10.753906 -8.738281 8.90625 -4.535156 C 8.007812 -1.960938 7.113281 0 4.871094 -0.167969 C 4.59375 -0.335938 4.425781 -0.335938 4.089844 -0.449219 C 2.746094 -0.894531 2.351562 -2.632812 2.464844 -4.929688 C 2.746094 -7.335938 3.527344 -10.417969 4.871094 -14.003906 C 7.226562 -20.5 11.035156 -28.117188 14.449219 -34.726562 Z M 22.683594 -15.570312 "/></g></g></g></svg>